<?xml version="1.0" encoding="UTF-8" standalone="no"?><!DOCTYPE svg PUBLIC "-//W3C//DTD SVG 1.1//EN" "http://www.w3.org/Graphics/SVG/1.1/DTD/svg11.dtd"><svg width="100%" height="100%" viewBox="0 0 29688 14063" version="1.1" xmlns="http://www.w3.org/2000/svg" xmlns:xlink="http://www.w3.org/1999/xlink" xml:space="preserve" xmlns:serif="http://www.serif.com/" style="fill-rule:evenodd;clip-rule:evenodd;"><g id="graph0"><g><path d="M-120.273,14108.6l0,-14082l29766.8,0l29.139,14140.2l-29796,-58.133Z" style="fill:#fff;fill-rule:nonzero;"/></g><g><rect x="23562.1" y="1325.18" width="4950.92" height="3630.57" style="fill:none;stroke:#000;stroke-width:161.04px;"/></g><g id="node1"><path d="M1349.13,3570.3l6703.46,0" style="fill:none;fill-rule:nonzero;stroke:#000;stroke-width:77.65px;"/><g><path d="M4568.33,2601.71l0,168.688l-17.184,0c-13.192,-52.985 -30.203,-89.03 -51.032,-108.134c-20.482,-19.103 -46.692,-28.655 -78.63,-28.655c-24.301,0 -43.916,6.668 -58.843,20.005c-14.928,13.336 -22.392,28.115 -22.392,44.335c0,20.185 5.555,37.486 16.664,51.904c10.762,14.778 32.632,30.458 65.612,47.038l76.027,38.388c70.472,35.684 105.709,82.722 105.709,141.114c-0,45.056 -16.49,81.461 -49.47,109.216c-32.633,27.393 -69.257,41.09 -109.874,41.09c-29.161,0 -62.488,-5.406 -99.981,-16.22c-11.456,-3.604 -20.829,-5.406 -28.12,-5.406c-7.984,-0 -14.233,4.685 -18.746,14.057l-17.184,0l-0,-176.799l17.184,0c9.72,50.463 28.293,88.49 55.718,114.081c27.426,25.592 58.149,38.388 92.17,38.388c23.954,-0 43.394,-7.209 58.322,-21.627c15.275,-14.778 22.912,-32.44 22.912,-52.985c0,-24.871 -8.505,-45.777 -25.516,-62.718c-16.663,-16.941 -50.164,-38.388 -100.501,-64.34c-50.337,-25.952 -83.317,-49.381 -98.939,-70.287c-15.622,-20.545 -23.433,-46.497 -23.433,-77.856c-0,-40.731 13.365,-74.793 40.096,-102.187c27.078,-27.394 61.967,-41.09 104.667,-41.09c18.747,-0 41.485,4.145 68.216,12.435c17.705,5.407 29.509,8.11 35.41,8.11c5.555,-0 9.894,-1.262 13.018,-3.785c3.125,-2.523 6.77,-8.11 10.936,-16.76l17.184,-0Z" style="fill-rule:nonzero;"/><path d="M4766.73,2450.33l171.842,-87.048l17.184,0l-0,619.067c-0,41.091 1.562,66.682 4.686,76.775c3.472,10.092 10.415,17.842 20.83,23.249c10.414,5.406 31.591,8.47 63.529,9.191l-0,20.005l-265.574,-0l0,-20.005c33.327,-0.721 54.851,-3.605 64.571,-8.651c9.721,-5.407 16.49,-12.435 20.309,-21.086c3.819,-9.011 5.728,-35.504 5.728,-79.478l-0,-395.77c-0,-53.346 -1.736,-87.589 -5.207,-102.727c-2.431,-11.535 -6.944,-20.005 -13.539,-25.412c-6.249,-5.407 -13.887,-8.11 -22.913,-8.11c-12.844,0 -30.723,5.587 -53.635,16.761l-7.811,-16.761Z" style="fill-rule:nonzero;"/></g><g><rect x="1349.12" y="3570.3" width="4660.19" height="1581.84" style="fill:none;stroke:#000;stroke-width:84.52px;"/></g><g><g><path d="M1637.21,4321.85l328.062,-0l-0,-209.78c-0,-37.486 -2.257,-62.177 -6.77,-74.071c-3.471,-9.012 -10.762,-16.761 -21.871,-23.249c-14.927,-8.651 -30.723,-12.976 -47.386,-12.976l-24.995,-0l-0,-20.005l302.024,-0l0,20.005l-24.995,-0c-16.663,-0 -32.459,4.145 -47.387,12.435c-11.108,5.767 -18.746,14.598 -22.912,26.493c-3.818,11.534 -5.728,35.324 -5.728,71.368l0,473.086c0,37.126 2.257,61.636 6.77,73.531c3.471,9.011 10.588,16.761 21.35,23.249c15.275,8.65 31.244,12.976 47.907,12.976l24.995,-0l0,20.004l-302.024,0l-0,-20.004l24.995,-0c28.814,-0 49.816,-8.831 63.008,-26.493c8.679,-11.534 13.019,-39.289 13.019,-83.263l-0,-223.297l-328.062,0l0,223.297c0,37.126 2.257,61.636 6.77,73.531c3.472,9.011 10.762,16.761 21.871,23.249c14.927,8.65 30.723,12.976 47.386,12.976l25.516,-0l0,20.004l-302.545,0l-0,-20.004l24.995,-0c29.161,-0 50.337,-8.831 63.529,-26.493c8.332,-11.534 12.498,-39.289 12.498,-83.263l-0,-473.086c-0,-37.486 -2.257,-62.177 -6.77,-74.071c-3.471,-9.012 -10.588,-16.761 -21.35,-23.249c-15.274,-8.651 -31.244,-12.976 -47.907,-12.976l-24.995,-0l-0,-20.005l302.545,-0l0,20.005l-25.516,-0c-16.663,-0 -32.459,4.145 -47.386,12.435c-10.762,5.767 -18.226,14.598 -22.392,26.493c-4.166,11.534 -6.249,35.324 -6.249,71.368l0,209.78Z" style="fill-rule:nonzero;"/><path d="M2491.73,4643.55c-48.949,39.289 -79.672,61.997 -92.17,68.124c-18.746,9.012 -38.708,13.517 -59.884,13.517c-32.98,0 -60.231,-11.714 -81.755,-35.143c-21.176,-23.429 -31.765,-54.247 -31.765,-92.455c0,-24.15 5.208,-45.056 15.622,-62.717c14.234,-24.511 38.882,-47.579 73.944,-69.206c35.41,-21.627 94.079,-47.939 176.008,-78.938l-0,-19.464c-0,-49.381 -7.638,-83.263 -22.912,-101.646c-14.928,-18.382 -36.799,-27.574 -65.613,-27.574c-21.87,0 -39.228,6.128 -52.073,18.383c-13.192,12.255 -19.788,26.313 -19.788,42.172l1.042,31.359c-0,16.58 -4.166,29.376 -12.498,38.387c-7.984,9.012 -18.573,13.517 -31.764,13.517c-12.845,0 -23.433,-4.686 -31.765,-14.057c-7.985,-9.372 -11.977,-22.168 -11.977,-38.388c0,-30.998 15.275,-59.473 45.824,-85.425c30.55,-25.953 73.424,-38.929 128.621,-38.929c42.353,0 77.069,7.39 104.147,22.168c20.482,11.174 35.583,28.655 45.303,52.445c6.249,15.499 9.374,47.218 9.374,95.158l-0,168.148c-0,47.218 0.867,76.234 2.603,87.047c1.736,10.453 4.513,17.482 8.332,21.086c4.166,3.605 8.852,5.407 14.06,5.407c5.554,0 10.414,-1.261 14.58,-3.784c7.29,-4.686 21.35,-17.843 42.18,-39.469l-0,30.277c-38.882,54.067 -76.027,81.101 -111.437,81.101c-17.011,-0 -30.55,-6.128 -40.617,-18.383c-10.068,-12.255 -15.275,-33.161 -15.622,-62.718Zm-0,-35.143l-0,-188.694c-52.421,21.627 -86.268,36.946 -101.543,45.957c-27.425,15.86 -47.039,32.44 -58.843,49.742c-11.803,17.301 -17.705,36.224 -17.705,56.77c0,25.952 7.464,47.579 22.392,64.88c14.928,16.941 32.112,25.412 51.552,25.412c26.384,-0 61.1,-18.023 104.147,-54.067Z" style="fill-rule:nonzero;"/><path d="M2705.23,4374.84l-0,-155.173l21.871,0c6.248,5.768 13.192,8.651 20.829,8.651c5.902,0 18.746,-2.883 38.534,-8.651c32.98,-9.732 59.884,-14.598 80.714,-14.598c45.824,0 84.011,10.994 114.561,32.981c30.896,21.987 46.345,51.184 46.345,87.589c-0,55.869 -40.791,96.419 -122.372,121.65c95.12,20.546 142.68,66.863 142.68,138.952c0,37.847 -15.274,71.369 -45.824,100.565c-30.55,28.835 -74.985,43.253 -133.307,43.253c-38.187,0 -71.861,-7.028 -101.022,-21.086c-28.814,-14.418 -60.232,-38.568 -94.253,-72.45l13.539,-14.057c56.933,45.777 110.916,68.665 161.948,68.665c29.161,0 53.114,-10.273 71.861,-30.818c18.746,-20.546 28.119,-47.219 28.119,-80.019c0,-71.729 -44.609,-109.756 -133.828,-114.081l0,-31.359c42.006,-0 72.382,-11.534 91.128,-34.603c19.094,-23.429 28.641,-48.48 28.641,-75.153c-0,-23.429 -8.159,-43.974 -24.475,-61.636c-15.969,-17.662 -37.319,-26.493 -64.05,-26.493c-61.793,-0 -102.758,45.957 -122.893,137.871l-18.746,-0Z" style="fill-rule:nonzero;"/><path d="M3418.64,4453.24c87.136,18.743 130.704,61.095 130.704,127.057c-0,45.056 -18.226,78.757 -54.677,101.105c-36.104,22.348 -86.615,33.521 -151.533,33.521l-235.371,0l-0,-20.004c30.897,-0 50.337,-5.948 58.322,-17.842c8.332,-12.256 12.497,-38.388 12.497,-78.397l0,-262.766c0,-38.928 -1.909,-61.816 -5.728,-68.665c-3.471,-6.848 -9.199,-12.976 -17.184,-18.382c-7.637,-5.768 -23.606,-8.651 -47.907,-8.651l-0,-20.546l219.749,0c42.353,0 76.547,3.425 102.584,10.273c26.384,6.849 47.907,20.365 64.571,40.55c17.01,20.185 25.516,44.696 25.516,73.531c-0,56.23 -33.848,92.635 -101.543,109.216Zm-153.616,-12.436c15.275,0.361 24.474,0.541 27.599,0.541c47.56,-0 81.928,-9.372 103.105,-28.115c21.176,-19.104 31.764,-42.172 31.764,-69.206c0,-31.358 -10.761,-54.067 -32.285,-68.124c-21.524,-14.057 -55.892,-21.086 -103.105,-21.086l-27.078,-0l-0,185.99Zm-0,230.325c17.358,5.767 38.013,8.651 61.967,8.651c41.311,-0 72.035,-9.372 92.17,-28.115c20.135,-18.743 30.202,-42.893 30.202,-72.45c0,-33.161 -13.018,-58.572 -39.055,-76.234c-26.036,-17.662 -62.141,-26.493 -108.312,-26.493c-11.456,0 -23.78,0.361 -36.972,1.082l-0,193.559Z" style="fill-rule:nonzero;"/><path d="M3875.82,4643.55c-48.949,39.289 -79.672,61.997 -92.17,68.124c-18.746,9.012 -38.708,13.517 -59.884,13.517c-32.98,0 -60.231,-11.714 -81.755,-35.143c-21.176,-23.429 -31.765,-54.247 -31.765,-92.455c0,-24.15 5.208,-45.056 15.622,-62.717c14.234,-24.511 38.882,-47.579 73.944,-69.206c35.41,-21.627 94.079,-47.939 176.008,-78.938l-0,-19.464c-0,-49.381 -7.638,-83.263 -22.912,-101.646c-14.928,-18.382 -36.799,-27.574 -65.613,-27.574c-21.87,0 -39.228,6.128 -52.073,18.383c-13.192,12.255 -19.788,26.313 -19.788,42.172l1.042,31.359c-0,16.58 -4.166,29.376 -12.498,38.387c-7.984,9.012 -18.573,13.517 -31.764,13.517c-12.845,0 -23.433,-4.686 -31.765,-14.057c-7.985,-9.372 -11.977,-22.168 -11.977,-38.388c0,-30.998 15.275,-59.473 45.824,-85.425c30.55,-25.953 73.424,-38.929 128.621,-38.929c42.353,0 77.069,7.39 104.147,22.168c20.482,11.174 35.583,28.655 45.303,52.445c6.249,15.499 9.374,47.218 9.374,95.158l-0,168.148c-0,47.218 0.867,76.234 2.603,87.047c1.736,10.453 4.513,17.482 8.332,21.086c4.166,3.605 8.852,5.407 14.06,5.407c5.554,0 10.414,-1.261 14.58,-3.784c7.29,-4.686 21.35,-17.843 42.18,-39.469l-0,30.277c-38.882,54.067 -76.027,81.101 -111.437,81.101c-17.011,-0 -30.55,-6.128 -40.617,-18.383c-10.068,-12.255 -15.275,-33.161 -15.622,-62.718Zm-0,-35.143l-0,-188.694c-52.421,21.627 -86.268,36.946 -101.543,45.957c-27.425,15.86 -47.039,32.44 -58.843,49.742c-11.803,17.301 -17.705,36.224 -17.705,56.77c0,25.952 7.464,47.579 22.392,64.88c14.928,16.941 32.112,25.412 51.552,25.412c26.384,-0 61.1,-18.023 104.147,-54.067Z" style="fill-rule:nonzero;"/><path d="M4227.84,4440.8l206.21,0l-0,-104.89c-0,-31.358 -1.215,-51.724 -3.645,-61.095c-2.431,-9.732 -8.506,-17.842 -18.226,-24.33c-9.373,-6.849 -26.21,-10.273 -50.511,-10.273l-0,-20.546l230.684,0l0,20.546c-21.523,-0 -37.319,2.523 -47.386,7.569c-9.721,5.046 -16.317,12.436 -19.788,22.168c-3.472,9.371 -5.208,31.358 -5.208,65.961l0,262.766c0,31.358 1.216,52.084 3.646,62.177c2.777,10.092 9.199,18.382 19.267,24.87c10.067,6.128 26.557,9.192 49.469,9.192l0,20.004l-230.684,0l-0,-20.004c28.814,-0 48.081,-5.407 57.801,-16.22c9.721,-11.174 14.581,-37.847 14.581,-80.019l-0,-122.732l-206.21,-0l-0,122.732c-0,31.358 1.215,52.084 3.645,62.177c2.777,10.092 9.2,18.382 19.267,24.87c10.067,6.128 26.557,9.192 49.47,9.192l-0,20.004l-230.685,0l0,-20.004c30.897,-0 50.685,-5.767 59.364,-17.302c8.679,-11.894 13.018,-38.207 13.018,-78.937l-0,-262.766c-0,-31.358 -1.389,-52.084 -4.166,-62.177c-2.43,-10.092 -8.679,-18.202 -18.746,-24.33c-10.068,-6.127 -26.558,-9.191 -49.47,-9.191l0,-20.546l230.685,0l-0,20.546c-21.524,-0 -37.32,2.523 -47.387,7.569c-9.72,5.046 -16.316,12.436 -19.788,22.168c-3.471,9.371 -5.207,31.358 -5.207,65.961l-0,104.89Z" style="fill-rule:nonzero;"/><path d="M4798.56,4562.45l206.21,-247.627c-0.694,-27.754 -5.728,-47.038 -15.101,-57.851c-9.373,-10.814 -25.516,-16.401 -48.428,-16.761l-0,-20.546l221.832,0l-0,20.546c-23.26,-0 -38.882,2.523 -46.866,7.569c-7.985,4.686 -14.234,10.633 -18.747,17.842c-4.513,7.209 -6.769,30.638 -6.769,70.287l-0,262.766c-0,38.207 1.909,61.095 5.728,68.665c3.819,7.208 9.72,13.697 17.705,19.464c8.331,5.406 24.648,8.11 48.949,8.11l-0,20.004l-230.685,0l0,-20.004c28.814,-0 48.081,-5.407 57.802,-16.22c9.72,-11.174 14.58,-37.847 14.58,-80.019l0,-233.029l-206.21,248.167c0.694,30.638 4.86,51.724 12.498,63.259c7.637,11.534 24.127,17.481 49.469,17.842l0,20.004l-220.269,0l-0,-20.004c30.896,-0 50.684,-5.767 59.363,-17.302c8.679,-11.894 13.018,-38.207 13.018,-78.937l0,-262.766c0,-38.567 -1.909,-61.276 -5.728,-68.124c-3.818,-7.209 -9.72,-13.517 -17.705,-18.923c-7.984,-5.768 -24.3,-8.651 -48.948,-8.651l-0,-20.546l230.684,0l-0,20.546c-23.259,-0 -38.881,2.523 -46.866,7.569c-7.985,4.686 -14.233,10.633 -18.746,17.842c-4.513,7.209 -6.77,30.638 -6.77,70.287l0,226.541Z" style="fill-rule:nonzero;"/><path d="M5300.55,4406.2c-0.347,73.531 16.837,131.203 51.552,173.014c34.716,41.812 75.506,62.718 122.372,62.718c31.244,0 58.322,-8.831 81.235,-26.493c23.259,-18.022 42.7,-48.66 58.322,-91.913l16.142,10.813c-7.29,49.381 -28.466,94.437 -63.529,135.167c-35.063,40.37 -78.978,60.555 -131.745,60.555c-57.281,0 -106.403,-23.068 -147.367,-69.205c-40.618,-46.498 -60.926,-108.855 -60.926,-187.072c-0,-84.705 20.829,-150.667 62.488,-197.885c42.005,-47.579 94.599,-71.368 157.782,-71.368c53.461,-0 97.376,18.382 131.745,55.148c34.368,36.405 51.552,85.245 51.552,146.521l-329.623,0Zm-0,-31.358l220.79,-0c-1.736,-31.72 -5.381,-54.067 -10.935,-67.043c-8.679,-20.185 -21.697,-36.045 -39.055,-47.579c-17.011,-11.535 -34.889,-17.302 -53.635,-17.302c-28.814,0 -54.677,11.715 -77.59,35.144c-22.565,23.068 -35.756,55.328 -39.575,96.78Z" style="fill-rule:nonzero;"/></g></g><g><rect x="6021.74" y="3570.3" width="4529.3" height="1581.84" style="fill:none;stroke:#000;stroke-width:105.08px;"/></g><g><g><path d="M6320.26,4217.71l0,-213.023l18.226,-0c5.554,23.789 18.399,35.684 38.534,35.684c7.637,-0 23.954,-4.866 48.949,-14.598c39.228,-14.779 80.366,-22.168 123.413,-22.168c58.322,0 105.188,18.203 140.598,54.608c35.41,36.405 53.115,78.938 53.115,127.598c-0,44.335 -13.366,82.362 -40.097,114.081c-26.731,31.359 -62.14,54.427 -106.229,69.206c47.907,9.011 86.615,31.719 116.123,68.124c29.508,36.045 44.262,78.577 44.262,127.598c0,60.555 -22.565,109.936 -67.695,148.143c-45.13,38.208 -101.195,57.311 -168.196,57.311c-99.634,0 -176.875,-49.02 -231.726,-147.062l17.705,-11.895c17.705,29.917 43.394,55.689 77.068,77.316c33.674,21.627 69.952,32.44 108.833,32.44c46.172,0 81.929,-15.859 107.271,-47.579c25.69,-32.079 38.534,-71.188 38.534,-117.325c0,-47.579 -16.142,-87.768 -48.428,-120.569c-32.285,-32.801 -85.747,-49.201 -160.385,-49.201l-0,-35.684c52.767,-0 92.516,-5.767 119.247,-17.302c26.731,-11.534 48.428,-30.277 65.092,-56.229c16.663,-25.952 24.995,-56.05 24.995,-90.292c0,-39.649 -11.63,-72.089 -34.889,-97.32c-23.259,-25.232 -54.85,-37.847 -94.773,-37.847c-49.643,-0 -88.525,15.319 -116.644,45.957c-27.773,30.277 -45.998,70.287 -54.677,120.028l-18.226,0Z" style="fill-rule:nonzero;"/><path d="M6983.67,4479.4l206.21,0l-0,-104.89c-0,-31.359 -1.215,-51.724 -3.645,-61.095c-2.43,-9.732 -8.506,-17.842 -18.226,-24.33c-9.373,-6.849 -26.21,-10.273 -50.511,-10.273l0,-20.546l230.684,0l0,20.546c-21.523,-0 -37.319,2.523 -47.386,7.569c-9.721,5.046 -16.316,12.436 -19.788,22.168c-3.472,9.371 -5.207,31.358 -5.207,65.961l-0,262.766c-0,31.358 1.215,52.084 3.645,62.177c2.777,10.092 9.199,18.382 19.267,24.87c10.067,6.128 26.557,9.192 49.469,9.192l0,20.004l-230.684,0l0,-20.004c28.814,-0 48.081,-5.407 57.801,-16.22c9.721,-11.174 14.581,-37.847 14.581,-80.019l-0,-122.732l-206.21,-0l-0,122.732c-0,31.358 1.215,52.084 3.645,62.177c2.777,10.092 9.2,18.382 19.267,24.87c10.068,6.128 26.557,9.192 49.47,9.192l-0,20.004l-230.685,0l0,-20.004c30.897,-0 50.685,-5.767 59.364,-17.302c8.679,-11.894 13.018,-38.207 13.018,-78.937l0,-262.766c0,-31.359 -1.388,-52.084 -4.166,-62.177c-2.43,-10.092 -8.679,-18.202 -18.746,-24.33c-10.068,-6.127 -26.557,-9.191 -49.47,-9.191l0,-20.546l230.685,0l-0,20.546c-21.524,-0 -37.319,2.523 -47.387,7.569c-9.72,5.046 -16.316,12.436 -19.788,22.168c-3.471,9.371 -5.207,31.358 -5.207,65.961l-0,104.89Z" style="fill-rule:nonzero;"/><path d="M7675.72,4682.15c-48.949,39.289 -79.672,61.997 -92.17,68.124c-18.746,9.012 -38.707,13.517 -59.884,13.517c-32.98,0 -60.231,-11.714 -81.755,-35.143c-21.176,-23.429 -31.764,-54.247 -31.764,-92.455c-0,-24.15 5.207,-45.056 15.621,-62.717c14.234,-24.511 38.882,-47.579 73.944,-69.206c35.41,-21.627 94.079,-47.939 176.008,-78.938l-0,-19.464c-0,-49.381 -7.638,-83.263 -22.912,-101.646c-14.928,-18.382 -36.799,-27.574 -65.613,-27.574c-21.87,0 -39.228,6.128 -52.073,18.383c-13.192,12.255 -19.788,26.313 -19.788,42.172l1.042,31.359c-0,16.58 -4.166,29.376 -12.498,38.387c-7.984,9.012 -18.572,13.517 -31.764,13.517c-12.845,0 -23.433,-4.686 -31.765,-14.057c-7.985,-9.372 -11.977,-22.168 -11.977,-38.388c0,-30.998 15.275,-59.473 45.825,-85.425c30.549,-25.953 73.423,-38.929 128.62,-38.929c42.353,0 77.069,7.389 104.147,22.168c20.482,11.174 35.583,28.655 45.303,52.445c6.249,15.499 9.374,47.218 9.374,95.157l-0,168.149c-0,47.218 0.868,76.234 2.603,87.047c1.736,10.453 4.513,17.482 8.332,21.086c4.166,3.605 8.852,5.407 14.06,5.407c5.554,0 10.414,-1.261 14.58,-3.785c7.291,-4.685 21.35,-17.842 42.18,-39.468l-0,30.277c-38.882,54.067 -76.027,81.101 -111.437,81.101c-17.011,-0 -30.55,-6.128 -40.617,-18.383c-10.068,-12.255 -15.275,-33.161 -15.622,-62.718Zm-0,-35.143l-0,-188.694c-52.42,21.627 -86.268,36.946 -101.543,45.957c-27.425,15.86 -47.039,32.44 -58.843,49.742c-11.803,17.301 -17.705,36.224 -17.705,56.77c0,25.952 7.464,47.579 22.392,64.88c14.928,16.941 32.112,25.412 51.552,25.412c26.384,-0 61.1,-18.023 104.147,-54.067Z" style="fill-rule:nonzero;"/><path d="M8156.86,4480.48l-0,-105.971c-0,-34.242 -1.736,-56.229 -5.208,-65.961c-3.124,-10.093 -9.894,-17.482 -20.308,-22.168c-10.068,-5.046 -25.516,-7.569 -46.345,-7.569l-0,-20.546l230.684,0l-0,20.546c-23.607,-0 -39.402,2.523 -47.387,7.569c-7.637,4.686 -13.712,10.633 -18.225,17.842c-4.513,7.209 -6.77,30.638 -6.77,70.287l0,262.766c0,34.242 1.562,56.409 4.687,66.502c3.471,9.732 10.241,17.121 20.308,22.167c10.415,5.047 26.21,7.57 47.387,7.57l-0,20.004l-242.141,0l0,-20.004c27.773,-1.082 45.825,-2.884 54.157,-5.407c8.678,-2.884 15.622,-9.912 20.829,-21.086c5.554,-11.174 8.332,-34.423 8.332,-69.746l-0,-121.11c-51.032,27.033 -104.841,40.55 -161.427,40.55c-30.897,-0 -54.851,-3.965 -71.861,-11.895c-17.011,-8.29 -27.773,-17.662 -32.286,-28.115c-4.513,-10.813 -6.769,-28.114 -6.769,-51.904l-0,-90.292c-0,-32.079 -1.389,-53.165 -4.166,-63.258c-2.777,-10.092 -9.026,-18.022 -18.746,-23.789c-9.721,-5.768 -24.128,-8.651 -43.221,-8.651l-0,-20.546l224.435,0l0,20.546c-23.259,-0 -38.881,2.523 -46.866,7.569c-7.984,4.686 -14.233,10.633 -18.746,17.842c-4.513,7.209 -6.769,30.638 -6.769,70.287l-0,61.096c-0,23.789 1.562,39.829 4.686,48.119c3.472,8.291 11.109,15.319 22.912,21.087c12.151,5.406 29.161,8.11 51.032,8.11c37.84,-0 73.77,-10.814 107.792,-32.441Z" style="fill-rule:nonzero;"/><path d="M8452.64,4444.8c-0.347,73.531 16.837,131.203 51.553,173.014c34.715,41.812 75.506,62.718 122.372,62.718c31.244,0 58.322,-8.831 81.234,-26.493c23.259,-18.022 42.7,-48.66 58.322,-91.913l16.143,10.813c-7.291,49.381 -28.467,94.437 -63.53,135.167c-35.062,40.37 -78.977,60.555 -131.745,60.555c-57.28,0 -106.403,-23.068 -147.367,-69.205c-40.617,-46.498 -60.926,-108.855 -60.926,-187.072c0,-84.705 20.83,-150.667 62.488,-197.885c42.006,-47.579 94.6,-71.368 157.782,-71.368c53.462,-0 97.377,18.382 131.745,55.148c34.368,36.405 51.553,85.245 51.553,146.521l-329.624,0Zm0,-31.359l220.791,0c-1.736,-31.719 -5.381,-54.066 -10.936,-67.042c-8.679,-20.185 -21.697,-36.045 -39.055,-47.579c-17.01,-11.535 -34.889,-17.302 -53.635,-17.302c-28.814,0 -54.677,11.715 -77.589,35.144c-22.565,23.068 -35.757,55.328 -39.576,96.779Z" style="fill-rule:nonzero;"/><path d="M8994.72,4479.4l206.21,0l0,-104.89c0,-31.359 -1.215,-51.724 -3.645,-61.095c-2.43,-9.732 -8.505,-17.842 -18.226,-24.33c-9.373,-6.849 -26.21,-10.273 -50.511,-10.273l0,-20.546l230.685,0l-0,20.546c-21.524,-0 -37.319,2.523 -47.387,7.569c-9.72,5.046 -16.316,12.436 -19.788,22.168c-3.471,9.371 -5.207,31.358 -5.207,65.961l0,262.766c0,31.358 1.215,52.084 3.645,62.177c2.777,10.092 9.2,18.382 19.267,24.87c10.068,6.128 26.558,9.192 49.47,9.192l-0,20.004l-230.685,0l0,-20.004c28.814,-0 48.081,-5.407 57.802,-16.22c9.72,-11.174 14.58,-37.847 14.58,-80.019l0,-122.732l-206.21,-0l0,122.732c0,31.358 1.215,52.084 3.645,62.177c2.778,10.092 9.2,18.382 19.268,24.87c10.067,6.128 26.557,9.192 49.469,9.192l0,20.004l-230.684,0l-0,-20.004c30.897,-0 50.684,-5.767 59.363,-17.302c8.679,-11.894 13.019,-38.207 13.019,-78.937l-0,-262.766c-0,-31.359 -1.389,-52.084 -4.166,-62.177c-2.43,-10.092 -8.679,-18.202 -18.747,-24.33c-10.067,-6.127 -26.557,-9.191 -49.469,-9.191l-0,-20.546l230.684,0l0,20.546c-21.524,-0 -37.319,2.523 -47.387,7.569c-9.72,5.046 -16.316,12.436 -19.787,22.168c-3.472,9.371 -5.208,31.358 -5.208,65.961l0,104.89Z" style="fill-rule:nonzero;"/><path d="M9565.44,4601.05l206.21,-247.627c-0.695,-27.754 -5.728,-47.038 -15.102,-57.851c-9.373,-10.814 -25.516,-16.401 -48.428,-16.761l0,-20.546l221.832,0l0,20.546c-23.259,-0 -38.881,2.523 -46.866,7.569c-7.984,4.686 -14.233,10.633 -18.746,17.842c-4.513,7.209 -6.77,30.638 -6.77,70.287l0,262.766c0,38.207 1.91,61.095 5.728,68.665c3.819,7.208 9.721,13.697 17.705,19.464c8.332,5.406 24.648,8.11 48.949,8.11l0,20.004l-230.684,0l-0,-20.004c28.814,-0 48.081,-5.407 57.801,-16.22c9.72,-11.174 14.581,-37.847 14.581,-80.019l-0,-233.029l-206.21,248.167c0.694,30.638 4.86,51.724 12.497,63.259c7.638,11.534 24.127,17.481 49.47,17.842l-0,20.004l-220.27,0l0,-20.004c30.897,-0 50.685,-5.767 59.364,-17.302c8.678,-11.894 13.018,-38.207 13.018,-78.937l-0,-262.766c-0,-38.567 -1.909,-61.276 -5.728,-68.124c-3.819,-7.209 -9.721,-13.517 -17.705,-18.923c-7.985,-5.768 -24.301,-8.651 -48.949,-8.651l0,-20.546l230.684,0l0,20.546c-23.259,-0 -38.881,2.523 -46.865,7.569c-7.985,4.686 -14.234,10.633 -18.747,17.842c-4.513,7.209 -6.769,30.638 -6.769,70.287l-0,226.541Z" style="fill-rule:nonzero;"/><path d="M10067.4,4444.8c-0.347,73.531 16.837,131.203 51.553,173.014c34.715,41.812 75.506,62.718 122.372,62.718c31.244,0 58.322,-8.831 81.234,-26.493c23.259,-18.022 42.7,-48.66 58.322,-91.913l16.143,10.813c-7.29,49.381 -28.467,94.437 -63.53,135.167c-35.062,40.37 -78.977,60.555 -131.745,60.555c-57.28,0 -106.403,-23.068 -147.367,-69.205c-40.617,-46.498 -60.926,-108.855 -60.926,-187.072c0,-84.705 20.83,-150.667 62.488,-197.885c42.006,-47.579 94.6,-71.368 157.782,-71.368c53.462,-0 97.377,18.382 131.745,55.148c34.369,36.405 51.553,85.245 51.553,146.521l-329.624,0Zm0,-31.359l220.791,0c-1.736,-31.719 -5.381,-54.066 -10.936,-67.042c-8.678,-20.185 -21.697,-36.045 -39.054,-47.579c-17.011,-11.535 -34.89,-17.302 -53.636,-17.302c-28.814,0 -54.677,11.715 -77.589,35.144c-22.565,23.068 -35.757,55.328 -39.576,96.779Z" style="fill-rule:nonzero;"/></g></g><g><rect x="1349.13" y="5152.14" width="4701.59" height="1581.84" style="fill:none;stroke:#000;stroke-width:84.94px;"/></g><g><g><path d="M1452.03,5546.4l286.402,0l0,20.005c-50.337,2.163 -75.506,16.22 -75.506,42.172c0,18.383 18.573,61.276 55.719,128.68l154.136,281.148l112.478,-281.148c23.607,-59.114 35.41,-98.763 35.41,-118.948c0,-28.114 -21.871,-45.416 -65.612,-51.904l-0,-20.005l221.311,0l0,20.005c-52.073,6.488 -91.649,43.254 -118.727,110.297l-134.869,333.052c-35.063,85.426 -63.53,146.161 -85.401,182.205c-21.87,36.045 -45.824,62.538 -71.861,79.479c-25.689,16.58 -52.42,24.871 -80.192,24.871c-23.954,-0 -44.263,-5.407 -60.926,-16.22c-16.316,-10.453 -24.474,-24.871 -24.474,-43.254c-0,-13.337 4.339,-24.33 13.018,-32.981c8.679,-9.011 20.482,-13.517 35.41,-13.517c14.58,0 31.938,6.128 52.073,18.383c13.539,7.57 23.78,11.354 30.723,11.354c27.425,0 58.149,-29.556 92.17,-88.67l-256.2,-467.678c-18.053,-32.801 -35.237,-56.05 -51.553,-69.747c-15.969,-13.697 -37.146,-22.888 -63.529,-27.574l-0,-20.005Z" style="fill-rule:nonzero;"/><path d="M2611.72,6279.55l-140.597,-0c-43.742,-65.962 -83.317,-133.545 -118.727,-202.751c-8.332,-15.86 -15.969,-27.574 -22.912,-35.144c-6.596,-7.929 -15.796,-11.894 -27.599,-11.894c-4.166,-0 -10.762,0.36 -19.788,1.081l0,132.464c0,35.684 1.909,58.572 5.728,68.665c4.166,9.732 11.456,16.761 21.871,21.086c10.414,4.325 27.946,6.488 52.594,6.488l-0,20.005l-238.496,-0l0,-20.005c30.897,0 50.685,-5.767 59.364,-17.301c8.679,-11.895 13.018,-38.208 13.018,-78.938l0,-262.765c0,-38.568 -1.909,-61.276 -5.728,-68.125c-3.819,-7.209 -9.72,-13.516 -17.705,-18.923c-7.984,-5.767 -24.301,-8.651 -48.949,-8.651l0,-20.545l238.496,-0l-0,20.545c-28.814,0 -46.693,2.163 -53.636,6.488c-6.596,4.326 -12.671,9.732 -18.225,16.22c-5.555,6.128 -8.332,30.458 -8.332,72.991l0,97.32c7.985,0.721 13.365,1.082 16.143,1.082c21.176,-0 40.964,-6.128 59.363,-18.383c18.747,-12.616 35.41,-39.109 49.99,-79.479c13.539,-38.207 24.648,-63.979 33.327,-77.315c9.026,-13.337 21.35,-24.15 36.972,-32.44c15.969,-8.651 32.633,-12.977 49.991,-12.977c18.746,0 33.674,4.686 44.783,14.058c11.108,9.371 16.663,21.627 16.663,36.765c-0,12.616 -3.992,23.429 -11.977,32.441c-7.984,8.65 -19.093,12.976 -33.327,12.976c-7.637,-0 -17.184,-2.163 -28.64,-6.488c-14.581,-5.407 -25.689,-8.11 -33.327,-8.11c-15.969,-0 -29.161,14.237 -39.576,42.712c-11.803,32.801 -20.482,54.067 -26.036,63.799c-5.555,9.372 -16.143,21.988 -31.765,37.847c10.762,3.244 22.392,11.534 34.889,24.871c12.845,13.336 36.452,51.364 70.82,114.081c27.425,50.102 47.907,81.821 61.446,95.158c13.886,13.336 33.848,20.365 59.884,21.086l0,20.005Z" style="fill-rule:nonzero;"/><path d="M2921.49,6208.18c-48.949,39.288 -79.672,61.996 -92.17,68.124c-18.746,9.011 -38.708,13.517 -59.884,13.517c-32.98,-0 -60.231,-11.715 -81.755,-35.144c-21.176,-23.429 -31.765,-54.247 -31.765,-92.454c0,-24.15 5.208,-45.056 15.622,-62.718c14.234,-24.51 38.882,-47.579 73.944,-69.206c35.41,-21.626 94.079,-47.939 176.008,-78.937l-0,-19.464c-0,-49.382 -7.638,-83.264 -22.912,-101.646c-14.928,-18.383 -36.799,-27.574 -65.613,-27.574c-21.87,-0 -39.228,6.127 -52.073,18.382c-13.192,12.255 -19.788,26.313 -19.788,42.173l1.042,31.358c-0,16.581 -4.166,29.377 -12.498,38.388c-7.984,9.011 -18.573,13.517 -31.765,13.517c-12.844,-0 -23.432,-4.686 -31.764,-14.058c-7.985,-9.371 -11.977,-22.167 -11.977,-38.387c-0,-30.999 15.275,-59.474 45.824,-85.426c30.55,-25.952 73.424,-38.928 128.621,-38.928c42.353,-0 77.069,7.389 104.147,22.167c20.482,11.174 35.583,28.656 45.303,52.445c6.249,15.499 9.374,47.219 9.374,95.158l-0,168.148c-0,47.218 0.867,76.234 2.603,87.048c1.736,10.453 4.513,17.481 8.332,21.086c4.166,3.604 8.852,5.407 14.06,5.407c5.554,-0 10.414,-1.262 14.58,-3.785c7.29,-4.686 21.35,-17.842 42.179,-39.469l0,30.278c-38.881,54.066 -76.026,81.1 -111.436,81.1c-17.011,-0 -30.55,-6.128 -40.617,-18.383c-10.068,-12.255 -15.275,-33.161 -15.622,-62.717Zm-0,-35.144l-0,-188.694c-52.421,21.627 -86.268,36.946 -101.543,45.957c-27.425,15.86 -47.039,32.44 -58.843,49.742c-11.803,17.301 -17.705,36.225 -17.705,56.77c0,25.952 7.464,47.579 22.392,64.88c14.927,16.941 32.112,25.412 51.552,25.412c26.384,-0 61.1,-18.022 104.147,-54.067Z" style="fill-rule:nonzero;"/><path d="M3135,5939.47l-0,-155.172l21.871,-0c6.249,5.767 13.192,8.651 20.829,8.651c5.902,-0 18.746,-2.884 38.534,-8.651c32.98,-9.732 59.884,-14.598 80.714,-14.598c45.824,-0 84.011,10.993 114.561,32.981c30.896,21.987 46.345,51.183 46.345,87.588c-0,55.869 -40.791,96.419 -122.372,121.651c95.12,20.545 142.68,66.862 142.68,138.952c0,37.846 -15.274,71.368 -45.824,100.564c-30.55,28.836 -74.985,43.254 -133.307,43.254c-38.187,-0 -71.861,-7.029 -101.022,-21.087c-28.814,-14.417 -60.232,-38.567 -94.253,-72.449l13.539,-14.058c56.933,45.777 110.916,68.665 161.948,68.665c29.161,0 53.114,-10.272 71.861,-30.818c18.746,-20.545 28.119,-47.218 28.119,-80.019c0,-71.729 -44.609,-109.756 -133.828,-114.081l0,-31.359c42.006,0 72.382,-11.534 91.128,-34.603c19.094,-23.429 28.641,-48.48 28.641,-75.153c-0,-23.429 -8.159,-43.974 -24.475,-61.636c-15.969,-17.662 -37.319,-26.493 -64.05,-26.493c-61.793,0 -102.758,45.957 -122.893,137.871l-18.746,-0Z" style="fill-rule:nonzero;"/><path d="M3816.18,6208.18c-48.949,39.288 -79.672,61.996 -92.17,68.124c-18.746,9.011 -38.707,13.517 -59.884,13.517c-32.98,-0 -60.231,-11.715 -81.755,-35.144c-21.176,-23.429 -31.764,-54.247 -31.764,-92.454c-0,-24.15 5.207,-45.056 15.621,-62.718c14.234,-24.51 38.882,-47.579 73.944,-69.206c35.41,-21.626 94.079,-47.939 176.008,-78.937l-0,-19.464c-0,-49.382 -7.638,-83.264 -22.912,-101.646c-14.928,-18.383 -36.799,-27.574 -65.613,-27.574c-21.87,-0 -39.228,6.127 -52.073,18.382c-13.192,12.255 -19.788,26.313 -19.788,42.173l1.042,31.358c-0,16.581 -4.166,29.377 -12.498,38.388c-7.984,9.011 -18.572,13.517 -31.764,13.517c-12.845,-0 -23.433,-4.686 -31.765,-14.058c-7.985,-9.371 -11.977,-22.167 -11.977,-38.387c0,-30.999 15.275,-59.474 45.825,-85.426c30.549,-25.952 73.423,-38.928 128.62,-38.928c42.353,-0 77.069,7.389 104.147,22.167c20.482,11.174 35.583,28.656 45.304,52.445c6.248,15.499 9.373,47.219 9.373,95.158l-0,168.148c-0,47.218 0.868,76.234 2.603,87.048c1.736,10.453 4.513,17.481 8.332,21.086c4.166,3.604 8.853,5.407 14.06,5.407c5.554,-0 10.414,-1.262 14.58,-3.785c7.291,-4.686 21.35,-17.842 42.18,-39.469l-0,30.278c-38.882,54.066 -76.027,81.1 -111.437,81.1c-17.011,-0 -30.55,-6.128 -40.617,-18.383c-10.068,-12.255 -15.275,-33.161 -15.622,-62.717Zm-0,-35.144l-0,-188.694c-52.42,21.627 -86.268,36.946 -101.543,45.957c-27.425,15.86 -47.039,32.44 -58.843,49.742c-11.803,17.301 -17.704,36.225 -17.704,56.77c-0,25.952 7.463,47.579 22.391,64.88c14.928,16.941 32.112,25.412 51.552,25.412c26.384,-0 61.1,-18.022 104.147,-54.067Z" style="fill-rule:nonzero;"/><path d="M4011.93,5784.29l412.42,-0l20.829,134.086l-23.433,-0c-4.165,-27.034 -11.109,-47.94 -20.829,-62.718c-9.72,-14.778 -20.829,-24.51 -33.327,-29.196c-12.497,-4.686 -33.847,-7.029 -64.05,-7.029l-41.658,0l-0,343.866c-0,36.765 2.083,60.194 6.248,70.287c4.513,9.732 11.63,16.22 21.35,19.464c9.721,3.244 31.939,5.407 66.654,6.488l0,20.005l-259.324,-0l-0,-20.005c33.326,-0.721 54.676,-6.308 64.05,-16.761c9.72,-10.453 14.58,-36.945 14.58,-79.478l0,-343.866l-42.7,0c-29.855,0 -50.164,1.983 -60.926,5.948c-10.761,3.604 -21.176,12.615 -31.243,27.033c-9.721,14.058 -18.052,36.045 -24.996,65.962l-23.433,-0l19.788,-134.086Z" style="fill-rule:nonzero;"/><path d="M4565.45,5970.82c-0.347,73.531 16.837,131.202 51.552,173.014c34.716,41.812 75.507,62.717 122.373,62.717c31.243,0 58.321,-8.83 81.234,-26.492c23.259,-18.023 42.7,-48.661 58.322,-91.914l16.142,10.813c-7.29,49.381 -28.466,94.437 -63.529,135.168c-35.063,40.37 -78.978,60.555 -131.745,60.555c-57.281,-0 -106.403,-23.069 -147.367,-69.206c-40.617,-46.498 -60.926,-108.855 -60.926,-187.072c0,-84.704 20.829,-150.666 62.488,-197.885c42.006,-47.578 94.6,-71.368 157.782,-71.368c53.462,0 97.377,18.383 131.745,55.148c34.368,36.405 51.552,85.246 51.552,146.522l-329.623,-0Zm-0,-31.359l220.79,-0c-1.735,-31.719 -5.381,-54.067 -10.935,-67.043c-8.679,-20.185 -21.697,-36.045 -39.055,-47.579c-17.01,-11.534 -34.889,-17.301 -53.635,-17.301c-28.814,-0 -54.677,11.714 -77.589,35.143c-22.565,23.069 -35.757,55.329 -39.576,96.78Z" style="fill-rule:nonzero;"/><path d="M5007.56,5784.29l426.479,-0l0,20.545c-23.606,0 -39.402,2.523 -47.387,7.57c-7.637,4.685 -13.712,10.633 -18.225,17.842c-4.513,7.209 -6.77,30.638 -6.77,70.287l0,262.765c0,38.207 1.91,61.096 5.728,68.665c3.819,7.209 9.721,13.697 17.705,19.464c8.332,5.407 24.648,8.11 48.949,8.11l0,20.005l-246.827,-0l0,-20.005c26.731,0 45.13,-1.442 55.198,-4.325c10.414,-2.884 18.572,-9.732 24.474,-20.546c5.902,-11.174 8.853,-34.963 8.853,-71.368l-0,-343.866l-158.824,0l0,208.699c0,78.937 -3.471,134.446 -10.414,166.526c-6.596,31.719 -19.962,55.328 -40.097,70.827c-19.788,15.139 -42.526,22.709 -68.216,22.709c-44.435,-0 -66.653,-19.104 -66.653,-57.311c-0,-12.976 3.471,-23.61 10.414,-31.9c7.291,-8.29 16.664,-12.435 28.12,-12.435c12.15,-0 23.433,5.226 33.847,15.679c13.539,13.697 23.78,20.546 30.724,20.546c15.622,-0 26.904,-13.517 33.847,-40.551c7.29,-27.394 10.936,-75.153 10.936,-143.277l-0,-109.215c-0,-56.23 -3.993,-90.472 -11.977,-102.727c-7.638,-12.255 -27.599,-19.645 -59.884,-22.168l-0,-20.545Z" style="fill-rule:nonzero;"/><path d="M5639.73,6004.89l59.364,-1.081c141.639,-0 212.458,45.416 212.458,136.248c0,42.172 -17.357,76.054 -52.073,101.646c-34.368,25.231 -84.011,37.847 -148.929,37.847l-229.122,-0l-0,-20.005c30.896,0 50.684,-5.767 59.363,-17.301c8.679,-11.895 13.018,-38.208 13.018,-78.938l0,-262.765c0,-38.568 -1.909,-61.276 -5.728,-68.125c-3.818,-7.209 -9.72,-13.516 -17.704,-18.923c-7.985,-5.767 -24.301,-8.651 -48.949,-8.651l-0,-20.545l249.43,-0l0,20.545c-34.368,0 -55.544,2.163 -63.529,6.488c-7.984,3.965 -14.58,9.372 -19.788,16.22c-5.207,6.488 -7.811,30.819 -7.811,72.991l0,104.349Zm0,231.947c18.399,5.046 36.799,7.569 55.198,7.569c34.715,0 62.835,-9.551 84.358,-28.655c21.871,-19.104 32.807,-43.254 32.807,-72.45c-0,-69.205 -46.346,-103.808 -139.036,-103.808c-7.984,-0 -19.093,0.18 -33.327,0.54l0,196.804Z" style="fill-rule:nonzero;"/></g></g><g><rect x="6054.84" y="5152.14" width="4469.33" height="1581.84" style="fill:none;stroke:#000;stroke-width:104.09px;"/></g><g><rect x="1349.13" y="6733.99" width="4705.71" height="1581.84" style="fill:none;stroke:#000;stroke-width:84.98px;"/></g><g><path d="M1753.07,7123.95l582.699,0l0,20.005c-43.741,1.442 -71.687,8.651 -83.838,21.627c-12.15,12.976 -18.225,43.614 -18.225,91.914l-0,406.042c-0,78.578 4.339,127.238 13.018,145.981c8.679,18.383 36.798,27.574 84.358,27.574l0,230.866l-17.704,-0c-10.415,-53.346 -27.252,-96.419 -50.511,-129.22c-22.913,-32.44 -49.123,-54.247 -78.631,-65.421c-29.161,-10.813 -64.224,-16.22 -105.188,-16.22l-180.173,-0c-78.804,-0 -136.779,22.167 -173.925,66.502c-36.798,44.335 -58.842,92.455 -66.133,144.359l-17.705,-0l0,-230.866c55.892,-5.046 101.37,-39.829 136.432,-104.349c35.063,-64.52 59.364,-143.638 72.903,-237.354c13.539,-94.076 20.308,-171.212 20.308,-231.406c0,-36.045 -4.339,-62.538 -13.018,-79.479c-8.679,-16.941 -19.093,-27.574 -31.244,-31.899c-11.803,-4.325 -36.278,-7.209 -73.423,-8.651l-0,-20.005Zm169.759,40.01c-8.679,213.744 -25.169,363.69 -49.47,449.837c-24.301,86.146 -56.933,153.91 -97.898,203.291l261.408,0c46.519,0 74.291,-4.145 83.317,-12.435c9.373,-8.651 14.06,-36.225 14.06,-82.722l-0,-557.971l-211.417,-0Z" style="fill-rule:nonzero;"/><path d="M2437.31,7361.84l426.479,-0l0,20.545c-23.606,0 -39.402,2.523 -47.386,7.57c-7.638,4.685 -13.713,10.633 -18.226,17.842c-4.513,7.209 -6.769,30.638 -6.769,70.287l-0,262.765c-0,38.207 1.909,61.096 5.728,68.665c3.818,7.209 9.72,13.697 17.705,19.464c8.331,5.407 24.648,8.11 48.948,8.11l0,20.005l-246.827,-0l0,-20.005c26.731,0 45.13,-1.442 55.198,-4.325c10.415,-2.884 18.573,-9.732 24.474,-20.546c5.902,-11.173 8.853,-34.963 8.853,-71.368l-0,-343.866l-158.823,0l-0,208.699c-0,78.937 -3.472,134.446 -10.415,166.526c-6.596,31.719 -19.961,55.328 -40.096,70.827c-19.788,15.139 -42.527,22.709 -68.216,22.709c-44.436,-0 -66.654,-19.104 -66.654,-57.311c-0,-12.976 3.471,-23.61 10.415,-31.9c7.29,-8.29 16.663,-12.435 28.119,-12.435c12.151,-0 23.433,5.226 33.848,15.679c13.539,13.697 23.78,20.546 30.723,20.546c15.622,-0 26.904,-13.517 33.847,-40.551c7.291,-27.393 10.936,-75.153 10.936,-143.277l-0,-109.215c-0,-56.23 -3.992,-90.472 -11.977,-102.727c-7.637,-12.255 -27.599,-19.645 -59.884,-22.168l-0,-20.545Z" style="fill-rule:nonzero;"/><path d="M3069.48,7704.63l206.209,-247.626c-0.694,-27.755 -5.728,-47.039 -15.101,-57.852c-9.373,-10.813 -25.516,-16.4 -48.428,-16.761l0,-20.545l221.832,-0l-0,20.545c-23.259,0 -38.881,2.523 -46.866,7.57c-7.984,4.685 -14.233,10.633 -18.746,17.842c-4.513,7.209 -6.77,30.638 -6.77,70.287l0,262.765c0,38.207 1.91,61.096 5.728,68.665c3.819,7.209 9.721,13.697 17.705,19.464c8.332,5.407 24.648,8.11 48.949,8.11l-0,20.005l-230.684,-0l-0,-20.005c28.814,0 48.081,-5.407 57.801,-16.22c9.72,-11.174 14.58,-37.847 14.58,-80.019l0,-233.028l-206.209,248.167c0.694,30.638 4.86,51.724 12.497,63.258c7.638,11.534 24.127,17.482 49.47,17.842l-0,20.005l-220.27,-0l-0,-20.005c30.897,0 50.685,-5.767 59.363,-17.301c8.679,-11.895 13.019,-38.208 13.019,-78.938l-0,-262.765c-0,-38.568 -1.91,-61.276 -5.728,-68.125c-3.819,-7.209 -9.721,-13.516 -17.705,-18.923c-7.985,-5.767 -24.301,-8.651 -48.949,-8.651l-0,-20.545l230.684,-0l0,20.545c-23.259,0 -38.881,2.523 -46.866,7.57c-7.984,4.685 -14.233,10.633 -18.746,17.842c-4.513,7.209 -6.769,30.638 -6.769,70.287l-0,226.54Z" style="fill-rule:nonzero;"/><path d="M3640.2,7582.98l206.21,-0l-0,-104.89c-0,-31.359 -1.215,-51.724 -3.645,-61.096c-2.43,-9.732 -8.506,-17.842 -18.226,-24.33c-9.373,-6.848 -26.21,-10.273 -50.511,-10.273l0,-20.545l230.684,-0l0,20.545c-21.523,0 -37.319,2.523 -47.386,7.57c-9.721,5.046 -16.317,12.435 -19.788,22.167c-3.472,9.372 -5.207,31.359 -5.207,65.962l-0,262.765c-0,31.359 1.215,52.084 3.645,62.177c2.777,10.092 9.199,18.383 19.267,24.871c10.067,6.127 26.557,9.191 49.469,9.191l0,20.005l-230.684,-0l0,-20.005c28.814,0 48.081,-5.407 57.801,-16.22c9.721,-11.174 14.581,-37.847 14.581,-80.019l-0,-122.732l-206.21,0l-0,122.732c-0,31.359 1.215,52.084 3.645,62.177c2.777,10.092 9.2,18.383 19.267,24.871c10.068,6.127 26.557,9.191 49.47,9.191l-0,20.005l-230.685,-0l0,-20.005c30.897,0 50.685,-5.767 59.364,-17.301c8.679,-11.895 13.018,-38.208 13.018,-78.938l0,-262.765c0,-31.359 -1.389,-52.085 -4.166,-62.177c-2.43,-10.093 -8.679,-18.203 -18.746,-24.33c-10.068,-6.128 -26.557,-9.192 -49.47,-9.192l0,-20.545l230.685,-0l-0,20.545c-21.524,0 -37.319,2.523 -47.387,7.57c-9.72,5.046 -16.316,12.435 -19.788,22.167c-3.471,9.372 -5.207,31.359 -5.207,65.962l-0,104.89Z" style="fill-rule:nonzero;"/><path d="M4332.25,7785.73c-48.949,39.288 -79.672,61.996 -92.17,68.124c-18.746,9.011 -38.708,13.517 -59.884,13.517c-32.98,-0 -60.231,-11.715 -81.755,-35.144c-21.176,-23.429 -31.765,-54.247 -31.765,-92.454c0,-24.15 5.208,-45.056 15.622,-62.718c14.234,-24.51 38.882,-47.579 73.944,-69.206c35.41,-21.626 94.079,-47.939 176.008,-78.937l-0,-19.464c-0,-49.382 -7.638,-83.263 -22.912,-101.646c-14.928,-18.383 -36.799,-27.574 -65.613,-27.574c-21.87,-0 -39.228,6.127 -52.073,18.382c-13.192,12.256 -19.788,26.313 -19.788,42.173l1.042,31.358c-0,16.581 -4.166,29.377 -12.498,38.388c-7.984,9.011 -18.573,13.517 -31.764,13.517c-12.845,-0 -23.433,-4.686 -31.765,-14.058c-7.985,-9.371 -11.977,-22.167 -11.977,-38.387c0,-30.999 15.275,-59.474 45.825,-85.426c30.549,-25.952 73.423,-38.928 128.62,-38.928c42.353,-0 77.069,7.389 104.147,22.167c20.482,11.174 35.583,28.656 45.303,52.445c6.249,15.499 9.374,47.219 9.374,95.158l-0,168.148c-0,47.219 0.867,76.234 2.603,87.048c1.736,10.453 4.513,17.481 8.332,21.086c4.166,3.604 8.852,5.407 14.06,5.407c5.554,-0 10.414,-1.262 14.58,-3.785c7.29,-4.686 21.35,-17.842 42.18,-39.469l-0,30.278c-38.882,54.066 -76.027,81.1 -111.437,81.1c-17.011,-0 -30.55,-6.128 -40.617,-18.383c-10.068,-12.255 -15.275,-33.161 -15.622,-62.717Zm-0,-35.144l-0,-188.694c-52.421,21.627 -86.268,36.946 -101.543,45.957c-27.425,15.86 -47.039,32.441 -58.843,49.742c-11.803,17.301 -17.705,36.225 -17.705,56.77c0,25.952 7.464,47.579 22.392,64.881c14.928,16.94 32.112,25.411 51.552,25.411c26.384,-0 61.1,-18.022 104.147,-54.067Z" style="fill-rule:nonzero;"/></g><g><rect x="6050.71" y="6733.99" width="4473.47" height="1581.84" style="fill:none;stroke:#000;stroke-width:104.16px;"/></g><g><path d="M8336.86,7198.39l-40.617,91.914l-212.459,-0l-46.345,98.402c91.996,14.057 164.898,49.561 218.707,106.511c46.172,49.021 69.258,106.692 69.258,173.015c-0,38.567 -7.638,74.251 -22.912,107.052c-14.928,32.801 -33.848,60.735 -56.76,83.804c-22.912,23.068 -48.428,41.631 -76.548,55.689c-39.923,19.824 -80.887,29.737 -122.893,29.737c-42.352,-0 -73.249,-7.39 -92.69,-22.168c-19.093,-15.139 -28.64,-31.719 -28.64,-49.741c-0,-10.093 3.992,-18.924 11.977,-26.493c7.984,-7.93 18.052,-11.895 30.202,-11.895c9.026,-0 16.837,1.442 23.433,4.325c6.943,2.884 18.573,10.273 34.889,22.168c26.037,18.743 52.421,28.115 79.151,28.115c40.618,-0 76.201,-15.86 106.75,-47.579c30.897,-32.08 46.346,-71.008 46.346,-116.785c-0,-44.335 -13.713,-85.606 -41.138,-123.813c-27.425,-38.568 -65.265,-68.305 -113.52,-89.211c-37.84,-16.22 -89.392,-25.591 -154.657,-28.114l135.39,-284.933l253.076,-0Z" style="fill-rule:nonzero;"/></g><g><rect x="1349.12" y="8315.83" width="4718.11" height="1581.84" style="fill:none;stroke:#000;stroke-width:85.11px;"/></g><g><g><path d="M1693.62,8797.34l0,289.799l155.178,-0c40.27,-0 67.175,-6.308 80.714,-18.924c18.052,-16.58 28.119,-45.776 30.202,-87.588l19.267,0l0,255.196l-19.267,-0c-4.86,-35.684 -9.72,-58.573 -14.58,-68.665c-6.249,-12.616 -16.49,-22.528 -30.723,-29.737c-14.234,-7.209 -36.105,-10.813 -65.613,-10.813l-155.178,-0l0,241.679c0,32.44 1.389,52.265 4.166,59.473c2.777,6.849 7.637,12.436 14.58,16.761c6.944,3.965 20.135,5.948 39.576,5.948l119.768,-0c39.923,-0 68.911,-2.884 86.963,-8.651c18.052,-5.767 35.41,-17.121 52.073,-34.062c21.524,-22.348 43.568,-56.05 66.133,-101.105l20.829,-0l-60.925,183.827l-544.165,0l-0,-20.005l24.995,0c16.663,0 32.459,-4.145 47.386,-12.435c11.109,-5.767 18.573,-14.418 22.392,-25.952c4.166,-11.534 6.249,-35.144 6.249,-70.828l-0,-476.329c-0,-46.498 -4.513,-75.153 -13.539,-85.967c-12.498,-14.418 -33.327,-21.627 -62.488,-21.627l-24.995,0l-0,-20.004l544.165,-0l7.811,160.578l-20.309,0c-7.29,-38.567 -15.448,-65.06 -24.474,-79.478c-8.679,-14.418 -21.698,-25.411 -39.055,-32.981c-13.887,-5.407 -38.361,-8.11 -73.424,-8.11l-193.712,0Zm196.316,-230.325c15.622,0 28.814,5.767 39.576,17.301c11.109,11.535 16.663,25.412 16.663,41.632c0,16.22 -5.554,30.097 -16.663,41.632c-10.762,11.173 -23.954,16.76 -39.576,16.76c-15.622,0 -28.987,-5.587 -40.096,-16.76c-11.109,-11.535 -16.664,-25.412 -16.664,-41.632c0,-16.22 5.555,-30.097 16.664,-41.632c11.109,-11.534 24.474,-17.301 40.096,-17.301Zm-183.818,0c15.969,0 29.334,5.767 40.096,17.301c11.109,11.535 16.663,25.412 16.663,41.632c0,16.22 -5.554,30.097 -16.663,41.632c-11.109,11.173 -24.301,16.76 -39.576,16.76c-15.622,0 -28.987,-5.587 -40.096,-16.76c-11.109,-11.535 -16.663,-25.412 -16.663,-41.632c-0,-16.22 5.381,-30.097 16.142,-41.632c11.109,-11.534 24.475,-17.301 40.097,-17.301Z" style="fill-rule:nonzero;"/><path d="M2463.78,9361.26l148.929,-366.033l160.906,0l0,20.546c-23.606,-0 -39.402,2.523 -47.386,7.569c-7.638,4.686 -13.713,10.633 -18.226,17.842c-4.513,7.209 -6.769,30.638 -6.769,70.287l-0,262.765c-0,34.243 1.562,56.41 4.686,66.503c3.472,9.732 10.241,17.121 20.309,22.167c10.414,5.046 26.21,7.569 47.386,7.569l0,20.005l-230.684,0l0,-20.005c28.467,0 47.56,-5.406 57.281,-16.22c9.72,-11.174 14.58,-37.847 14.58,-80.019l0,-297.909l-168.717,414.153l-18.226,0l-171.841,-414.153l-0,297.909c-0,34.243 1.736,56.41 5.207,66.503c3.472,9.732 10.241,17.121 20.309,22.167c10.067,5.046 25.689,7.569 46.866,7.569l-0,20.005l-182.257,0l0,-20.005c30.897,0 50.685,-5.767 59.364,-17.301c8.679,-11.895 13.018,-38.207 13.018,-78.938l0,-262.765c0,-38.568 -1.909,-61.276 -5.728,-68.124c-3.819,-7.209 -9.72,-13.517 -17.705,-18.924c-7.984,-5.767 -24.301,-8.65 -48.949,-8.65l0,-20.546l167.676,0l149.971,366.033Z" style="fill-rule:nonzero;"/><path d="M3308.93,9490.48l-140.598,0c-43.741,-65.962 -83.317,-133.545 -118.727,-202.751c-8.331,-15.859 -15.969,-27.574 -22.912,-35.143c-6.596,-7.93 -15.795,-11.895 -27.599,-11.895c-4.165,-0 -10.761,0.36 -19.787,1.081l-0,132.464c-0,35.684 1.909,58.573 5.728,68.665c4.166,9.732 11.456,16.761 21.87,21.086c10.415,4.326 27.946,6.488 52.594,6.488l0,20.005l-238.495,0l0,-20.005c30.897,0 50.685,-5.767 59.364,-17.301c8.678,-11.895 13.018,-38.207 13.018,-78.938l-0,-262.765c-0,-38.568 -1.91,-61.276 -5.728,-68.124c-3.819,-7.209 -9.721,-13.517 -17.705,-18.924c-7.985,-5.767 -24.301,-8.65 -48.949,-8.65l0,-20.546l238.495,0l0,20.546c-28.813,-0 -46.692,2.162 -53.635,6.488c-6.596,4.325 -12.671,9.732 -18.226,16.22c-5.554,6.127 -8.331,30.457 -8.331,72.99l-0,97.32c7.984,0.721 13.365,1.082 16.142,1.082c21.177,-0 40.965,-6.128 59.364,-18.383c18.746,-12.616 35.41,-39.108 49.99,-79.478c13.539,-38.208 24.648,-63.98 33.327,-77.316c9.026,-13.337 21.35,-24.15 36.972,-32.44c15.969,-8.651 32.632,-12.976 49.99,-12.976c18.746,-0 33.674,4.686 44.783,14.057c11.109,9.372 16.664,21.627 16.664,36.766c-0,12.615 -3.993,23.429 -11.977,32.44c-7.985,8.65 -19.094,12.976 -33.327,12.976c-7.638,-0 -17.184,-2.163 -28.64,-6.488c-14.581,-5.407 -25.69,-8.11 -33.327,-8.11c-15.969,-0 -29.161,14.237 -39.576,42.713c-11.803,32.8 -20.482,54.067 -26.037,63.799c-5.554,9.371 -16.142,21.987 -31.764,37.846c10.762,3.244 22.391,11.535 34.889,24.871c12.845,13.337 36.451,51.364 70.819,114.081c27.426,50.102 47.908,81.822 61.447,95.158c13.886,13.337 33.847,20.365 59.884,21.086l0,20.005Z" style="fill-rule:nonzero;"/><path d="M3527.64,8980.62c72.208,0 130.183,28.475 173.925,85.426c37.145,48.66 55.718,104.529 55.718,167.607c-0,44.335 -10.241,89.211 -30.723,134.627c-20.482,45.416 -48.776,79.658 -84.88,102.727c-35.757,23.069 -75.679,34.603 -119.768,34.603c-71.861,-0 -128.968,-29.737 -171.321,-89.211c-35.757,-50.102 -53.635,-106.331 -53.635,-168.688c-0,-45.417 10.762,-90.472 32.285,-135.168c21.871,-45.055 50.511,-78.217 85.921,-99.483c35.41,-21.627 72.902,-32.44 112.478,-32.44Zm-16.143,35.144c-18.399,-0 -36.972,5.767 -55.718,17.301c-18.399,11.174 -33.327,30.998 -44.783,59.474c-11.456,28.475 -17.184,65.06 -17.184,109.755c-0,72.09 13.713,134.267 41.138,186.531c27.772,52.265 64.223,78.397 109.353,78.397c33.674,0 61.447,-14.418 83.318,-43.253c21.87,-28.836 32.806,-78.397 32.806,-148.684c-0,-87.949 -18.226,-157.155 -54.677,-207.617c-24.648,-34.603 -56.066,-51.904 -94.253,-51.904Z" style="fill-rule:nonzero;"/><path d="M4232.74,9302.32c-12.844,65.241 -38.013,115.523 -75.506,150.847c-37.493,34.963 -78.978,52.445 -124.455,52.445c-54.156,-0 -101.369,-23.609 -141.639,-70.828c-40.27,-47.218 -60.405,-111.017 -60.405,-191.397c0,-77.856 22.218,-141.114 66.654,-189.775c44.783,-48.66 98.418,-72.99 160.906,-72.99c46.866,0 85.4,12.976 115.603,38.928c30.202,25.592 45.303,52.265 45.303,80.019c0,13.697 -4.339,24.871 -13.018,33.522c-8.332,8.29 -20.135,12.435 -35.41,12.435c-20.482,0 -35.93,-6.848 -46.345,-20.545c-5.902,-7.57 -9.894,-21.988 -11.977,-43.254c-1.736,-21.266 -8.679,-37.486 -20.829,-48.66c-12.151,-10.813 -28.988,-16.22 -50.511,-16.22c-34.716,-0 -62.662,13.336 -83.838,40.009c-28.12,35.324 -42.179,82.002 -42.179,140.034c-0,59.113 13.886,111.378 41.658,156.794c28.12,45.056 65.96,67.583 113.52,67.583c34.021,0 64.571,-12.074 91.649,-36.224c19.093,-16.581 37.666,-46.678 55.718,-90.292l15.101,7.569Z" style="fill-rule:nonzero;"/><path d="M4293.6,8995.22l412.42,0l20.829,134.086l-23.433,0c-4.166,-27.033 -11.109,-47.939 -20.829,-62.718c-9.721,-14.778 -20.83,-24.51 -33.327,-29.196c-12.498,-4.686 -33.848,-7.028 -64.05,-7.028l-41.659,-0l0,343.865c0,36.766 2.083,60.195 6.249,70.287c4.513,9.732 11.63,16.22 21.35,19.464c9.72,3.244 31.938,5.407 66.654,6.488l-0,20.005l-259.325,0l0,-20.005c33.327,-0.721 54.677,-6.307 64.05,-16.76c9.721,-10.453 14.581,-36.946 14.581,-79.479l-0,-343.865l-42.7,-0c-29.856,-0 -50.164,1.982 -60.926,5.947c-10.762,3.604 -21.176,12.616 -31.244,27.033c-9.72,14.058 -18.052,36.045 -24.995,65.962l-23.433,0l19.788,-134.086Z" style="fill-rule:nonzero;"/><path d="M4915.87,9215.82l59.363,-1.081c141.639,-0 212.459,45.416 212.459,136.248c-0,42.173 -17.358,76.055 -52.073,101.646c-34.369,25.231 -84.012,37.847 -148.93,37.847l-229.122,0l0,-20.005c30.897,0 50.685,-5.767 59.364,-17.301c8.678,-11.895 13.018,-38.207 13.018,-78.938l-0,-262.765c-0,-38.568 -1.909,-61.276 -5.728,-68.124c-3.819,-7.209 -9.721,-13.517 -17.705,-18.924c-7.985,-5.767 -24.301,-8.65 -48.949,-8.65l0,-20.546l249.431,0l-0,20.546c-34.369,-0 -55.545,2.162 -63.53,6.488c-7.984,3.964 -14.58,9.371 -19.787,16.22c-5.208,6.488 -7.811,30.818 -7.811,72.99l-0,104.349Zm-0,231.947c18.399,5.046 36.798,7.57 55.197,7.57c34.716,-0 62.835,-9.552 84.359,-28.656c21.871,-19.104 32.806,-43.253 32.806,-72.45c-0,-69.205 -46.345,-103.808 -139.035,-103.808c-7.985,-0 -19.094,0.18 -33.327,0.541l-0,196.803Z" style="fill-rule:nonzero;"/></g></g><g><rect x="6050.72" y="8315.83" width="4488.36" height="1581.84" style="fill:none;stroke:#000;stroke-width:104.4px;"/></g><g><path d="M8493.19,8698.35l-40.617,91.913l-212.459,0l-46.345,98.402c91.996,14.058 164.899,49.561 218.708,106.512c46.171,49.021 69.257,106.692 69.257,173.014c0,38.568 -7.637,74.252 -22.912,107.053c-14.928,32.8 -33.848,60.735 -56.76,83.803c-22.912,23.069 -48.428,41.632 -76.547,55.689c-39.923,19.825 -80.888,29.737 -122.893,29.737c-42.353,0 -73.25,-7.389 -92.691,-22.167c-19.093,-15.139 -28.64,-31.72 -28.64,-49.742c0,-10.092 3.992,-18.923 11.977,-26.493c7.985,-7.929 18.052,-11.894 30.202,-11.894c9.026,-0 16.837,1.441 23.433,4.325c6.943,2.884 18.573,10.273 34.889,22.167c26.037,18.744 52.421,28.115 79.152,28.115c40.617,0 76.2,-15.859 106.75,-47.579c30.897,-32.079 46.345,-71.008 46.345,-116.784c-0,-44.335 -13.713,-85.606 -41.138,-123.814c-27.425,-38.567 -65.265,-68.304 -113.519,-89.21c-37.84,-16.22 -89.393,-25.592 -154.658,-28.115l135.39,-284.932l253.076,-0Z" style="fill-rule:nonzero;"/></g></g><g id="node2"><g><rect x="17137.3" y="1336.86" width="6430.83" height="3594.19" style="fill:none;stroke:#000;stroke-width:176.78px;"/></g><g><g><path d="M18026,2078.74l-347.205,-0l-0,559.592c-0,48.3 6.256,78.938 18.767,91.914c12.88,12.976 42.688,20.185 89.424,21.627l-0,20.005l-322.366,-0l0,-20.005c46.368,-1.442 75.992,-8.651 88.871,-21.627c12.88,-12.976 19.32,-43.614 19.32,-91.914l0,-466.057c0,-48.299 -6.44,-78.937 -19.32,-91.913c-12.879,-12.977 -42.503,-20.185 -88.871,-21.627l0,-20.005l775.555,0l-0,20.005c-46.368,1.442 -75.992,8.65 -88.872,21.627c-12.88,12.976 -19.319,43.614 -19.319,91.913l-0,466.057c-0,48.3 6.439,78.938 19.319,91.914c12.88,12.976 42.504,20.185 88.872,21.627l-0,20.005l-321.814,-0l-0,-20.005c46,-1.442 75.439,-8.471 88.319,-21.086c12.88,-12.976 19.32,-43.795 19.32,-92.455l0,-559.592Z" style="fill-rule:nonzero;"/><path d="M18543.2,2262.03c76.543,0 137.999,28.476 184.367,85.426c39.375,48.66 59.063,104.53 59.063,167.608c0,44.335 -10.856,89.21 -32.568,134.626c-21.712,45.416 -51.703,79.659 -89.975,102.727c-37.904,23.069 -80.224,34.603 -126.959,34.603c-76.176,0 -136.711,-29.737 -181.607,-89.21c-37.904,-50.102 -56.856,-106.332 -56.856,-168.689c0,-45.416 11.408,-90.472 34.224,-135.167c23.184,-45.056 53.544,-78.217 91.08,-99.483c37.535,-21.627 77.279,-32.441 119.231,-32.441Zm-17.112,35.144c-19.504,-0 -39.192,5.767 -59.064,17.301c-19.504,11.174 -35.327,30.999 -47.471,59.474c-12.144,28.475 -18.216,65.06 -18.216,109.756c-0,72.089 14.536,134.266 43.607,186.531c29.44,52.264 68.08,78.397 115.92,78.397c35.695,-0 65.135,-14.418 88.319,-43.254c23.184,-28.835 34.776,-78.397 34.776,-148.684c-0,-87.949 -19.32,-157.154 -57.96,-207.617c-26.128,-34.603 -59.431,-51.904 -99.911,-51.904Z" style="fill-rule:nonzero;"/><path d="M18824.8,2325.83l155.663,-61.636l20.976,0l-0,115.703c26.127,-43.614 52.255,-74.071 78.383,-91.373c26.496,-17.662 54.28,-26.493 83.352,-26.493c50.783,0 93.103,19.465 126.959,58.393c41.583,47.579 62.375,109.575 62.375,185.99c0,85.426 -25.024,156.073 -75.071,211.942c-41.216,45.777 -93.104,68.665 -155.663,68.665c-27.232,0 -50.784,-3.784 -70.656,-11.354c-14.72,-5.406 -31.279,-16.22 -49.679,-32.44l-0,150.847c-0,33.882 2.024,55.328 6.072,64.339c4.416,9.372 11.776,16.761 22.079,22.168c10.672,5.407 29.808,8.11 57.408,8.11l0,20.005l-264.958,-0l-0,-20.005l13.8,-0c20.24,0.36 37.536,-3.424 51.887,-11.354c6.992,-3.965 12.328,-10.453 16.008,-19.464c4.048,-8.651 6.072,-30.999 6.072,-67.043l0,-468.22c0,-32.08 -1.472,-52.445 -4.416,-61.095c-2.944,-8.651 -7.728,-15.139 -14.352,-19.465c-6.256,-4.325 -14.903,-6.488 -25.943,-6.488c-8.832,0 -20.056,2.524 -33.672,7.57l-6.624,-17.302Zm176.639,85.967l-0,184.909c-0,40.009 1.656,66.322 4.968,78.937c5.152,20.906 17.664,39.289 37.535,55.149c20.24,15.859 45.632,23.789 76.176,23.789c36.8,0 66.607,-14.057 89.423,-42.172c29.808,-36.766 44.712,-88.49 44.712,-155.172c-0,-75.694 -16.928,-133.906 -50.784,-174.636c-23.552,-28.115 -51.519,-42.173 -83.903,-42.173c-17.664,0 -35.144,4.326 -52.44,12.977c-13.248,6.488 -35.144,25.952 -65.687,58.392Z" style="fill-rule:nonzero;"/><path d="M19885.7,2276.62l-0,20.546c-22.816,-0 -39.744,3.064 -50.784,9.191c-10.672,6.128 -17.664,13.877 -20.976,23.249c-3.312,9.372 -4.968,30.458 -4.968,63.258l0,262.766c0,31.358 1.472,52.084 4.416,62.177c2.944,9.732 9.936,17.842 20.976,24.33c11.408,6.488 28.52,9.732 51.336,9.732l-0,20.005l-244.535,-0l0,-20.005c30.544,-0 50.968,-5.407 61.272,-16.22c10.304,-11.174 15.456,-37.847 15.456,-80.019l-0,-107.594l-22.632,0.541c-3.312,0 -9.2,-0.18 -17.664,-0.541l-161.183,223.838l-125.855,-0l0,-20.005c18.4,-0 31.096,-2.343 38.088,-7.029c7.36,-5.046 20.792,-21.086 40.296,-48.12l118.127,-163.282c-84.64,-28.835 -126.959,-72.99 -126.959,-132.464c-0,-33.521 15.087,-62.537 45.263,-87.047c30.544,-24.871 82.432,-37.307 155.663,-37.307l224.663,0Zm-167.807,41.091c-14.352,-3.965 -27.968,-5.947 -40.848,-5.947c-37.168,-0 -64.951,9.011 -83.351,27.033c-18.4,18.023 -27.6,39.469 -27.6,64.34c-0,31.719 13.064,58.032 39.192,78.938c26.127,20.906 59.063,31.359 98.807,31.359c4.048,-0 8.648,-0.361 13.8,-1.082l-0,-194.641Z" style="fill-rule:nonzero;"/><path d="M20015.4,2276.62l446.013,0l-0,20.546c-25.024,-0 -41.768,2.523 -50.232,7.569c-8.096,4.686 -14.536,10.633 -19.32,17.842c-4.784,7.209 -7.176,30.638 -7.176,70.287l0,244.924c0,51.543 4.416,83.263 13.248,95.157c9.2,11.535 30.36,17.842 63.48,18.924l-0,157.335l-20.976,-0c-1.472,-29.557 -9.016,-55.329 -22.632,-77.316c-13.248,-21.987 -31.832,-37.487 -55.752,-46.498c-23.919,-9.011 -59.247,-13.516 -105.983,-13.516l-130.271,-0c-40.48,-0 -72.127,3.424 -94.943,10.272c-22.816,7.209 -41.952,21.987 -57.408,44.335c-15.088,22.348 -24.288,49.922 -27.6,82.723l-20.424,-0l0,-157.335c30.176,-1.082 57.592,-12.796 82.248,-35.144c24.656,-22.347 46.368,-66.142 65.135,-131.382c18.768,-65.241 28.152,-129.401 28.152,-192.479c0,-61.996 -28.52,-93.896 -85.559,-95.698l-0,-20.546Zm121.991,35.144l-0,29.737c-0,176.979 -32.752,308.722 -98.255,395.229l187.678,0c33.856,0 53.36,-2.703 58.512,-8.11c5.152,-5.767 7.728,-26.493 7.728,-62.177l-0,-354.679l-155.663,-0Z" style="fill-rule:nonzero;"/><path d="M21028.9,2771.88l-149.039,-0c-46.368,-65.962 -88.319,-133.546 -125.855,-202.751c-8.832,-15.86 -16.928,-27.575 -24.288,-35.144c-6.992,-7.93 -16.744,-11.895 -29.256,-11.895c-4.416,0 -11.408,0.361 -20.976,1.082l0,132.464c0,35.684 2.024,58.572 6.072,68.665c4.416,9.732 12.144,16.76 23.184,21.086c11.04,4.325 29.624,6.488 55.752,6.488l-0,20.005l-252.815,-0l0,-20.005c32.752,-0 53.728,-5.767 62.928,-17.302c9.2,-11.894 13.8,-38.207 13.8,-78.937l-0,-262.766c-0,-38.567 -2.024,-61.275 -6.072,-68.124c-4.048,-7.209 -10.304,-13.517 -18.768,-18.923c-8.464,-5.768 -25.76,-8.651 -51.888,-8.651l0,-20.546l252.815,0l-0,20.546c-30.544,-0 -49.496,2.163 -56.856,6.488c-6.992,4.325 -13.432,9.732 -19.32,16.22c-5.888,6.128 -8.832,30.458 -8.832,72.99l0,97.321c8.464,0.721 14.168,1.081 17.112,1.081c22.448,0 43.424,-6.127 62.928,-18.383c19.872,-12.615 37.536,-39.108 52.991,-79.478c14.352,-38.207 26.128,-63.979 35.328,-77.316c9.568,-13.336 22.632,-24.15 39.192,-32.44c16.928,-8.651 34.592,-12.976 52.992,-12.976c19.871,0 35.695,4.686 47.471,14.058c11.776,9.371 17.664,21.626 17.664,36.765c0,12.616 -4.232,23.429 -12.696,32.44c-8.464,8.651 -20.24,12.976 -35.328,12.976c-8.095,0 -18.215,-2.162 -30.359,-6.488c-15.456,-5.406 -27.232,-8.11 -35.328,-8.11c-16.928,0 -30.912,14.238 -41.952,42.713c-12.512,32.801 -21.712,54.067 -27.6,63.799c-5.888,9.372 -17.112,21.987 -33.671,37.847c11.408,3.244 23.735,11.534 36.983,24.871c13.616,13.336 38.64,51.363 75.072,114.081c29.072,50.102 50.783,81.821 65.135,95.158c14.72,13.336 35.88,20.365 63.48,21.086l-0,20.005Z" style="fill-rule:nonzero;"/><path d="M21260.7,2262.03c76.543,0 137.999,28.476 184.367,85.426c39.375,48.66 59.063,104.53 59.063,167.608c0,44.335 -10.856,89.21 -32.568,134.626c-21.711,45.416 -51.703,79.659 -89.975,102.727c-37.904,23.069 -80.223,34.603 -126.959,34.603c-76.176,0 -136.711,-29.737 -181.607,-89.21c-37.904,-50.102 -56.855,-106.332 -56.855,-168.689c-0,-45.416 11.407,-90.472 34.223,-135.167c23.184,-45.056 53.544,-78.217 91.08,-99.483c37.535,-21.627 77.279,-32.441 119.231,-32.441Zm-17.112,35.144c-19.504,-0 -39.192,5.767 -59.064,17.301c-19.503,11.174 -35.327,30.999 -47.471,59.474c-12.144,28.475 -18.216,65.06 -18.216,109.756c-0,72.089 14.536,134.266 43.608,186.531c29.439,52.264 68.079,78.397 115.919,78.397c35.696,-0 65.135,-14.418 88.319,-43.254c23.184,-28.835 34.776,-78.397 34.776,-148.684c-0,-87.949 -19.32,-157.154 -57.96,-207.617c-26.127,-34.603 -59.431,-51.904 -99.911,-51.904Z" style="fill-rule:nonzero;"/><path d="M21899.4,2510.2c92.367,18.743 138.551,61.095 138.551,127.057c-0,45.056 -19.32,78.757 -57.96,101.105c-38.272,22.348 -91.815,33.522 -160.631,33.522l-249.502,-0l-0,-20.005c32.752,-0 53.359,-5.948 61.823,-17.842c8.832,-12.256 13.248,-38.388 13.248,-78.397l0,-262.766c0,-38.928 -2.024,-61.816 -6.072,-68.665c-3.68,-6.848 -9.752,-12.976 -18.216,-18.382c-8.095,-5.768 -25.023,-8.651 -50.783,-8.651l-0,-20.546l232.942,0c44.896,0 81.144,3.425 108.744,10.273c27.967,6.849 50.783,20.365 68.447,40.55c18.032,20.185 27.048,44.696 27.048,73.531c-0,56.23 -35.88,92.635 -107.639,109.216Zm-162.839,-12.436c16.192,0.361 25.944,0.541 29.255,0.541c50.416,-0 86.848,-9.372 109.296,-28.115c22.448,-19.104 33.672,-42.172 33.672,-69.206c-0,-31.358 -11.408,-54.067 -34.224,-68.124c-22.816,-14.057 -59.248,-21.086 -109.296,-21.086l-28.703,-0l-0,185.99Zm-0,230.325c18.4,5.767 40.295,8.651 65.687,8.651c43.792,0 76.36,-9.372 97.704,-28.115c21.343,-18.743 32.015,-42.893 32.015,-72.449c0,-33.162 -13.8,-58.573 -41.399,-76.235c-27.6,-17.662 -65.872,-26.493 -114.816,-26.493c-12.143,0 -25.207,0.361 -39.191,1.082l-0,193.559Z" style="fill-rule:nonzero;"/><path d="M22556.8,2297.17l0,-20.546l254.47,0l0,20.546c-22.447,-0 -38.823,2.343 -49.127,7.029c-10.304,4.685 -17.48,11.894 -21.528,21.626c-3.68,9.732 -5.52,32.08 -5.52,67.043l-0,262.766c-0,33.882 1.656,55.869 4.968,65.961c3.312,9.732 10.304,17.302 20.976,22.708c11.04,5.047 27.784,7.57 50.231,7.57l0,20.005l-254.47,-0l0,-20.005c28.704,-1.082 47.288,-2.884 55.752,-5.407c8.832,-2.884 16.192,-9.912 22.08,-21.086c5.888,-11.174 8.832,-34.423 8.832,-69.746l-0,-262.766c-0,-34.963 -2.024,-57.491 -6.072,-67.583c-4.048,-10.093 -11.224,-17.121 -21.528,-21.086c-9.936,-4.326 -29.624,-6.669 -59.064,-7.029Zm-287.038,200.048l62.928,-1.082c150.143,0 225.214,45.416 225.214,136.249c0,42.172 -18.4,76.054 -55.199,101.646c-36.432,25.231 -89.056,37.847 -157.871,37.847l-242.879,-0l0,-20.005c32.752,-0 53.728,-5.767 62.928,-17.302c9.2,-11.894 13.8,-38.207 13.8,-78.937l-0,-262.766c-0,-38.567 -2.024,-61.275 -6.072,-68.124c-4.048,-7.209 -10.304,-13.517 -18.768,-18.923c-8.464,-5.768 -25.76,-8.651 -51.888,-8.651l0,-20.546l264.406,0l0,20.546c-36.431,-0 -58.879,2.163 -67.343,6.488c-8.464,3.965 -15.456,9.372 -20.976,16.22c-5.52,6.488 -8.28,30.818 -8.28,72.99l0,104.35Zm0,231.947c19.504,5.046 39.008,7.569 58.512,7.569c36.799,0 66.607,-9.552 89.423,-28.655c23.184,-19.104 34.776,-43.254 34.776,-72.45c-0,-69.206 -49.128,-103.809 -147.383,-103.809c-8.464,0 -20.24,0.181 -35.328,0.541l0,196.804Z" style="fill-rule:nonzero;"/><path d="M22958.1,2078.2c0,-12.616 3.496,-22.708 10.488,-30.278c7.36,-7.929 16.56,-11.894 27.6,-11.894c24.288,-0 45.816,22.347 64.584,67.043c10.672,25.231 22.816,41.091 36.431,47.579c13.984,6.127 27.6,9.191 40.848,9.191c23.184,-0 40.664,-4.866 52.44,-14.598c11.776,-9.732 22.816,-27.214 33.12,-52.445c15.456,-37.486 34.407,-56.23 56.855,-56.23c11.04,0 20.424,3.965 28.152,11.895c7.728,7.569 11.592,17.121 11.592,28.656c-0,27.754 -18.584,53.526 -55.752,77.315c-37.167,23.79 -78.935,35.684 -125.303,35.684c-60.719,0 -106.167,-10.813 -136.343,-32.44c-29.808,-21.627 -44.712,-48.119 -44.712,-79.478Zm71.76,541.21l218.59,-247.627c-0.736,-27.754 -6.071,-47.038 -16.007,-57.851c-9.936,-10.814 -27.048,-16.401 -51.336,-16.761l-0,-20.546l235.15,0l0,20.546c-24.655,-0 -41.215,2.523 -49.679,7.569c-8.464,4.686 -15.088,10.633 -19.872,17.842c-4.784,7.209 -7.176,30.638 -7.176,70.287l-0,262.766c-0,38.207 2.024,61.095 6.072,68.665c4.048,7.209 10.304,13.697 18.768,19.464c8.832,5.406 26.128,8.11 51.887,8.11l0,20.005l-244.534,-0l-0,-20.005c30.544,-0 50.968,-5.407 61.272,-16.22c10.304,-11.174 15.455,-37.847 15.455,-80.019l0,-233.029l-218.59,248.167c0.736,30.638 5.152,51.724 13.248,63.259c8.096,11.534 25.576,17.481 52.44,17.842l-0,20.005l-233.495,-0l0,-20.005c32.752,-0 53.728,-5.767 62.928,-17.302c9.2,-11.894 13.8,-38.207 13.8,-78.937l-0,-262.766c-0,-38.567 -2.024,-61.275 -6.072,-68.124c-4.048,-7.209 -10.304,-13.517 -18.768,-18.923c-8.464,-5.768 -25.76,-8.651 -51.888,-8.651l0,-20.546l244.534,0l0,20.546c-24.655,-0 -41.215,2.523 -49.679,7.569c-8.464,4.686 -15.088,10.633 -19.872,17.842c-4.784,7.209 -7.176,30.638 -7.176,70.287l-0,226.541Z" style="fill-rule:nonzero;"/></g><g><path d="M17733.5,3383.92l235.703,0l-0,20.005l-11.592,-0c-16.56,-0 -29.072,3.604 -37.536,10.813c-8.096,6.849 -12.144,15.499 -12.144,25.952c0,14.058 6.072,33.522 18.216,58.393l123.095,249.789l113.159,-273.579c6.256,-14.778 9.384,-29.376 9.384,-43.794c0,-6.488 -1.288,-11.354 -3.864,-14.598c-2.944,-3.965 -7.544,-7.029 -13.8,-9.191c-6.256,-2.524 -17.295,-3.785 -33.119,-3.785l-0,-20.005l164.495,0l-0,20.005c-13.616,1.442 -24.104,4.325 -31.464,8.651c-7.36,4.325 -15.456,12.435 -24.288,24.33c-3.312,5.046 -9.568,18.923 -18.768,41.631l-205.895,494.172c-19.871,47.939 -45.999,84.164 -78.383,108.674c-32.016,24.511 -62.928,36.766 -92.735,36.766c-21.712,-0 -39.56,-6.128 -53.544,-18.383c-13.984,-12.255 -20.976,-26.312 -20.976,-42.172c0,-15.139 4.968,-27.394 14.904,-36.766c10.304,-9.011 24.288,-13.516 41.952,-13.516c12.144,-0 28.703,3.965 49.679,11.894c14.72,5.407 23.92,8.111 27.6,8.111c11.04,-0 23,-5.587 35.88,-16.761c13.248,-11.174 26.496,-32.801 39.744,-64.881l35.879,-85.966l-181.606,-373.602c-5.52,-11.174 -14.352,-25.051 -26.496,-41.632c-9.2,-12.616 -16.744,-21.086 -22.632,-25.411c-8.464,-5.768 -22.08,-10.814 -40.848,-15.139l0,-20.005Z" style="fill-rule:nonzero;"/><path d="M18834.7,3879.17l-149.039,0c-46.368,-65.962 -88.32,-133.545 -125.855,-202.751c-8.832,-15.859 -16.928,-27.574 -24.288,-35.143c-6.992,-7.93 -16.744,-11.895 -29.256,-11.895c-4.416,-0 -11.408,0.36 -20.976,1.081l0,132.464c0,35.684 2.024,58.573 6.072,68.665c4.416,9.732 12.144,16.761 23.184,21.086c11.04,4.326 29.624,6.488 55.752,6.488l-0,20.005l-252.815,0l0,-20.005c32.752,0 53.728,-5.767 62.928,-17.301c9.2,-11.895 13.8,-38.207 13.8,-78.938l-0,-262.765c-0,-38.568 -2.024,-61.276 -6.072,-68.124c-4.048,-7.209 -10.304,-13.517 -18.768,-18.924c-8.464,-5.767 -25.76,-8.65 -51.888,-8.65l0,-20.546l252.815,0l-0,20.546c-30.544,-0 -49.496,2.162 -56.856,6.488c-6.992,4.325 -13.432,9.732 -19.32,16.22c-5.888,6.127 -8.832,30.457 -8.832,72.99l0,97.32c8.464,0.721 14.168,1.082 17.112,1.082c22.448,-0 43.424,-6.128 62.928,-18.383c19.871,-12.616 37.535,-39.108 52.991,-79.478c14.352,-38.208 26.128,-63.98 35.328,-77.316c9.568,-13.337 22.632,-24.15 39.192,-32.44c16.928,-8.651 34.592,-12.976 52.991,-12.976c19.872,-0 35.696,4.686 47.472,14.057c11.776,9.372 17.664,21.627 17.664,36.766c-0,12.615 -4.232,23.429 -12.696,32.44c-8.464,8.651 -20.24,12.976 -35.328,12.976c-8.096,-0 -18.216,-2.163 -30.36,-6.488c-15.455,-5.407 -27.231,-8.11 -35.327,-8.11c-16.928,-0 -30.912,14.237 -41.952,42.713c-12.512,32.8 -21.712,54.067 -27.6,63.799c-5.888,9.371 -17.112,21.987 -33.672,37.846c11.408,3.245 23.736,11.535 36.984,24.871c13.616,13.337 38.64,51.364 75.072,114.081c29.071,50.103 50.783,81.822 65.135,95.158c14.72,13.337 35.88,20.365 63.48,21.086l-0,20.005Z" style="fill-rule:nonzero;"/><path d="M19146,3807.8c-51.887,39.288 -84.455,61.997 -97.703,68.124c-19.872,9.011 -41.032,13.517 -63.48,13.517c-34.959,-0 -63.847,-11.715 -86.663,-35.144c-22.448,-23.429 -33.672,-54.247 -33.672,-92.454c0,-24.15 5.52,-45.056 16.56,-62.718c15.088,-24.51 41.216,-47.579 78.384,-69.205c37.535,-21.627 99.727,-47.94 186.574,-78.938l0,-19.464c0,-49.381 -8.096,-83.263 -24.288,-101.646c-15.823,-18.383 -39.007,-27.574 -69.551,-27.574c-23.184,-0 -41.584,6.127 -55.2,18.383c-13.984,12.255 -20.976,26.312 -20.976,42.172l1.104,31.359c0,16.58 -4.416,29.376 -13.247,38.387c-8.464,9.011 -19.688,13.517 -33.672,13.517c-13.616,-0 -24.84,-4.686 -33.672,-14.058c-8.464,-9.371 -12.696,-22.167 -12.696,-38.387c0,-30.998 16.192,-59.474 48.576,-85.426c32.384,-25.952 77.831,-38.928 136.343,-38.928c44.896,0 81.695,7.389 110.399,22.167c21.712,11.174 37.72,28.656 48.024,52.445c6.624,15.5 9.936,47.219 9.936,95.158l-0,168.148c-0,47.219 0.92,76.235 2.76,87.048c1.84,10.453 4.784,17.482 8.832,21.086c4.416,3.605 9.384,5.407 14.904,5.407c5.887,-0 11.039,-1.262 15.455,-3.785c7.728,-4.686 22.632,-17.842 44.712,-39.469l0,30.278c-41.216,54.067 -80.591,81.1 -118.127,81.1c-18.032,0 -32.384,-6.127 -43.056,-18.383c-10.672,-12.255 -16.192,-33.161 -16.56,-62.717Zm0,-35.144l0,-188.693c-55.567,21.627 -91.447,36.945 -107.639,45.957c-29.072,15.859 -49.864,32.44 -62.376,49.741c-12.511,17.302 -18.767,36.225 -18.767,56.77c-0,25.953 7.912,47.579 23.735,64.881c15.824,16.941 34.04,25.411 54.648,25.411c27.968,0 64.768,-18.022 110.399,-54.067Z" style="fill-rule:nonzero;"/><path d="M19372.4,3539.09l-0,-155.172l23.183,0c6.624,5.767 13.984,8.651 22.08,8.651c6.256,-0 19.872,-2.884 40.848,-8.651c34.96,-9.732 63.479,-14.598 85.559,-14.598c48.576,0 89.056,10.994 121.44,32.981c32.751,21.987 49.127,51.183 49.127,87.588c0,55.869 -43.24,96.42 -129.719,121.651c100.831,20.545 151.247,66.863 151.247,138.952c0,37.847 -16.192,71.368 -48.576,100.564c-32.383,28.836 -79.487,43.254 -141.311,43.254c-40.479,-0 -76.175,-7.029 -107.087,-21.086c-30.544,-14.418 -63.848,-38.568 -99.911,-72.45l14.352,-14.057c60.351,45.776 117.575,68.665 171.67,68.665c30.912,-0 56.304,-10.273 76.176,-30.818c19.872,-20.546 29.808,-47.219 29.808,-80.02c-0,-71.728 -47.288,-109.755 -141.863,-114.081l-0,-31.359c44.527,0 76.727,-11.534 96.599,-34.602c20.24,-23.429 30.36,-48.48 30.36,-75.153c-0,-23.429 -8.648,-43.975 -25.944,-61.637c-16.928,-17.662 -39.56,-26.492 -67.896,-26.492c-65.503,-0 -108.927,45.956 -130.271,137.87l-19.871,0Z" style="fill-rule:nonzero;"/><path d="M20094.3,3807.8c-51.888,39.288 -84.456,61.997 -97.704,68.124c-19.872,9.011 -41.032,13.517 -63.479,13.517c-34.96,-0 -63.848,-11.715 -86.664,-35.144c-22.448,-23.429 -33.672,-54.247 -33.672,-92.454c0,-24.15 5.52,-45.056 16.56,-62.718c15.088,-24.51 41.216,-47.579 78.384,-69.205c37.536,-21.627 99.727,-47.94 186.575,-78.938l-0,-19.464c-0,-49.381 -8.096,-83.263 -24.288,-101.646c-15.824,-18.383 -39.008,-27.574 -69.552,-27.574c-23.184,-0 -41.584,6.127 -55.199,18.383c-13.984,12.255 -20.976,26.312 -20.976,42.172l1.104,31.359c-0,16.58 -4.416,29.376 -13.248,38.387c-8.464,9.011 -19.688,13.517 -33.672,13.517c-13.616,-0 -24.84,-4.686 -33.672,-14.058c-8.464,-9.371 -12.696,-22.167 -12.696,-38.387c0,-30.998 16.192,-59.474 48.576,-85.426c32.384,-25.952 77.831,-38.928 136.343,-38.928c44.896,0 81.696,7.389 110.399,22.167c21.712,11.174 37.72,28.656 48.024,52.445c6.624,15.5 9.936,47.219 9.936,95.158l-0,168.148c-0,47.219 0.92,76.235 2.76,87.048c1.84,10.453 4.784,17.482 8.832,21.086c4.416,3.605 9.384,5.407 14.904,5.407c5.888,-0 11.04,-1.262 15.456,-3.785c7.728,-4.686 22.631,-17.842 44.711,-39.469l0,30.278c-41.215,54.067 -80.591,81.1 -118.127,81.1c-18.032,0 -32.384,-6.127 -43.056,-18.383c-10.671,-12.255 -16.191,-33.161 -16.559,-62.717Zm-0,-35.144l-0,-188.693c-55.568,21.627 -91.448,36.945 -107.64,45.957c-29.072,15.859 -49.863,32.44 -62.375,49.741c-12.512,17.302 -18.768,36.225 -18.768,56.77c-0,25.953 7.912,47.579 23.736,64.881c15.824,16.941 34.039,25.411 54.647,25.411c27.968,0 64.768,-18.022 110.4,-54.067Z" style="fill-rule:nonzero;"/><path d="M20301.9,3383.92l437.182,0l22.079,134.086l-24.839,0c-4.416,-27.033 -11.776,-47.939 -22.08,-62.718c-10.304,-14.778 -22.08,-24.51 -35.328,-29.196c-13.248,-4.685 -35.88,-7.028 -67.896,-7.028l-44.159,-0l-0,343.865c-0,36.766 2.208,60.195 6.624,70.287c4.784,9.732 12.328,16.22 22.631,19.464c10.304,3.244 33.856,5.407 70.656,6.488l0,20.005l-274.894,0l-0,-20.005c35.328,-0.721 57.959,-6.307 67.895,-16.76c10.304,-10.453 15.456,-36.946 15.456,-79.479l0,-343.865l-45.263,-0c-31.648,-0 -53.176,1.982 -64.584,5.947c-11.408,3.604 -22.448,12.616 -33.12,27.033c-10.304,14.058 -19.136,36.045 -26.496,65.962l-24.839,0l20.975,-134.086Z" style="fill-rule:nonzero;"/><path d="M20888.7,3570.45c-0.368,73.531 17.848,131.202 54.648,173.014c36.8,41.812 80.039,62.718 129.719,62.718c33.12,-0 61.824,-8.831 86.111,-26.493c24.656,-18.022 45.264,-48.66 61.824,-91.914l17.112,10.814c-7.728,49.381 -30.176,94.437 -67.344,135.167c-37.167,40.37 -83.719,60.555 -139.655,60.555c-60.719,-0 -112.791,-23.069 -156.215,-69.206c-43.055,-46.497 -64.583,-108.855 -64.583,-187.071c-0,-84.705 22.08,-150.667 66.239,-197.885c44.528,-47.579 100.28,-71.369 167.255,-71.369c56.672,0 103.224,18.383 139.655,55.149c36.432,36.405 54.648,85.245 54.648,146.521l-349.414,-0Zm0,-31.359l234.047,0c-1.84,-31.719 -5.704,-54.067 -11.592,-67.043c-9.2,-20.185 -23,-36.044 -41.4,-47.579c-18.032,-11.534 -36.984,-17.301 -56.856,-17.301c-30.543,-0 -57.959,11.714 -82.247,35.143c-23.92,23.069 -37.904,55.329 -41.952,96.78Z" style="fill-rule:nonzero;"/><path d="M21357.3,3383.92l452.085,0l0,20.546c-25.024,-0 -41.768,2.523 -50.232,7.569c-8.096,4.686 -14.536,10.633 -19.319,17.842c-4.784,7.209 -7.176,30.638 -7.176,70.287l-0,262.765c-0,38.208 2.024,61.096 6.072,68.665c4.047,7.209 10.303,13.697 18.767,19.464c8.832,5.407 26.128,8.11 51.888,8.11l0,20.005l-261.646,0l-0,-20.005c28.336,0 47.839,-1.441 58.511,-4.325c11.04,-2.884 19.688,-9.732 25.944,-20.545c6.256,-11.174 9.384,-34.964 9.384,-71.369l0,-343.865l-168.359,-0l0,208.698c0,78.938 -3.68,134.446 -11.04,166.526c-6.992,31.719 -21.159,55.329 -42.503,70.828c-20.976,15.138 -45.08,22.708 -72.312,22.708c-47.104,-0 -70.655,-19.104 -70.655,-57.311c-0,-12.976 3.68,-23.609 11.04,-31.9c7.728,-8.29 17.663,-12.435 29.807,-12.435c12.88,0 24.84,5.226 35.88,15.679c14.352,13.697 25.208,20.546 32.568,20.546c16.56,-0 28.52,-13.517 35.88,-40.55c7.728,-27.394 11.592,-75.153 11.592,-143.278l-0,-109.215c-0,-56.229 -4.232,-90.472 -12.696,-102.727c-8.096,-12.255 -29.256,-19.644 -63.48,-22.167l0,-20.546Z" style="fill-rule:nonzero;"/><path d="M22027.5,3604.51l62.927,-1.081c150.143,-0 225.215,45.416 225.215,136.248c-0,42.173 -18.4,76.055 -55.2,101.646c-36.432,25.232 -89.055,37.847 -157.871,37.847l-242.878,0l-0,-20.005c32.751,0 53.727,-5.767 62.927,-17.301c9.2,-11.895 13.8,-38.207 13.8,-78.938l0,-262.765c0,-38.568 -2.024,-61.276 -6.072,-68.124c-4.048,-7.209 -10.304,-13.517 -18.768,-18.924c-8.464,-5.767 -25.759,-8.65 -51.887,-8.65l-0,-20.546l264.406,0l-0,20.546c-36.432,-0 -58.88,2.162 -67.344,6.488c-8.464,3.964 -15.456,9.371 -20.975,16.22c-5.52,6.488 -8.28,30.818 -8.28,72.99l-0,104.349Zm-0,231.947c19.503,5.047 39.007,7.57 58.511,7.57c36.8,-0 66.608,-9.552 89.424,-28.656c23.183,-19.103 34.775,-43.253 34.775,-72.45c0,-69.205 -49.127,-103.808 -147.383,-103.808c-8.464,-0 -20.24,0.18 -35.327,0.541l-0,196.803Z" style="fill-rule:nonzero;"/></g></g><g><rect x="23616" y="1214.64" width="4455.22" height="3716.34" style="fill:none;"/></g><g><g><path d="M23820.4,2569.05l0,-213.023l19.32,-0c5.888,23.789 19.504,35.684 40.848,35.684c8.096,-0 25.392,-4.866 51.887,-14.598c41.584,-14.778 85.192,-22.168 130.824,-22.168c61.823,0 111.503,18.203 149.039,54.608c37.535,36.405 56.303,78.938 56.303,127.598c0,44.335 -14.168,82.362 -42.503,114.081c-28.336,31.359 -65.872,54.427 -112.608,69.206c50.784,9.011 91.816,31.719 123.095,68.124c31.28,36.045 46.92,78.577 46.92,127.598c0,60.555 -23.92,109.936 -71.759,148.143c-47.84,38.208 -107.272,57.311 -178.295,57.311c-105.615,0 -187.495,-49.02 -245.639,-147.062l18.768,-11.894c18.768,29.917 46,55.689 81.696,77.315c35.696,21.627 74.151,32.44 115.367,32.44c48.944,0 86.847,-15.859 113.711,-47.578c27.232,-32.08 40.848,-71.189 40.848,-117.326c-0,-47.579 -17.112,-87.768 -51.336,-120.569c-34.223,-32.8 -90.895,-49.201 -170.015,-49.201l0,-35.684c55.936,0 98.072,-5.767 126.408,-17.301c28.335,-11.535 51.335,-30.278 68.999,-56.23c17.664,-25.952 26.496,-56.049 26.496,-90.292c-0,-39.649 -12.328,-72.089 -36.984,-97.32c-24.656,-25.231 -58.143,-37.847 -100.463,-37.847c-52.624,-0 -93.839,15.319 -123.647,45.957c-29.44,30.277 -48.76,70.287 -57.96,120.028l-19.32,0Z" style="fill-rule:nonzero;"/><path d="M24523.7,2830.74l218.59,0l0,-104.89c0,-31.358 -1.288,-51.724 -3.864,-61.095c-2.576,-9.732 -9.016,-17.842 -19.32,-24.33c-9.936,-6.849 -27.784,-10.273 -53.543,-10.273l-0,-20.545l244.534,-0l-0,20.545c-22.816,0 -39.56,2.523 -50.232,7.569c-10.304,5.047 -17.296,12.436 -20.976,22.168c-3.68,9.371 -5.52,31.359 -5.52,65.961l0,262.766c0,31.359 1.288,52.084 3.864,62.177c2.944,10.092 9.752,18.382 20.424,24.87c10.672,6.128 28.152,9.192 52.44,9.192l-0,20.005l-244.534,-0l-0,-20.005c30.543,-0 50.967,-5.407 61.271,-16.22c10.304,-11.174 15.456,-37.847 15.456,-80.019l0,-122.732l-218.59,-0l-0,122.732c-0,31.359 1.287,52.084 3.863,62.177c2.944,10.092 9.752,18.382 20.424,24.87c10.672,6.128 28.152,9.192 52.44,9.192l-0,20.005l-244.534,-0l-0,-20.005c32.751,-0 53.727,-5.767 62.927,-17.302c9.2,-11.894 13.8,-38.207 13.8,-78.937l0,-262.766c0,-31.358 -1.472,-52.084 -4.416,-62.176c-2.576,-10.093 -9.2,-18.203 -19.872,-24.331c-10.672,-6.127 -28.152,-9.191 -52.439,-9.191l-0,-20.545l244.534,-0l-0,20.545c-22.816,0 -39.56,2.523 -50.232,7.569c-10.304,5.047 -17.296,12.436 -20.976,22.168c-3.68,9.371 -5.519,31.359 -5.519,65.961l-0,104.89Z" style="fill-rule:nonzero;"/><path d="M25257.3,3033.49c-51.888,39.289 -84.456,61.997 -97.704,68.125c-19.872,9.011 -41.032,13.516 -63.479,13.516c-34.96,0 -63.848,-11.714 -86.664,-35.143c-22.448,-23.429 -33.672,-54.247 -33.672,-92.455c0,-24.149 5.52,-45.055 16.56,-62.717c15.088,-24.511 41.216,-47.579 78.384,-69.206c37.536,-21.627 99.727,-47.939 186.575,-78.938l-0,-19.464c-0,-49.381 -8.096,-83.263 -24.288,-101.646c-15.824,-18.382 -39.008,-27.574 -69.552,-27.574c-23.184,0 -41.584,6.128 -55.199,18.383c-13.984,12.255 -20.976,26.313 -20.976,42.172l1.104,31.359c-0,16.581 -4.416,29.376 -13.248,38.388c-8.464,9.011 -19.688,13.516 -33.672,13.516c-13.616,0 -24.84,-4.685 -33.672,-14.057c-8.464,-9.372 -12.696,-22.167 -12.696,-38.388c0,-30.998 16.192,-59.473 48.576,-85.425c32.384,-25.952 77.831,-38.928 136.343,-38.928c44.896,-0 81.696,7.389 110.399,22.167c21.712,11.174 37.72,28.655 48.024,52.445c6.624,15.499 9.936,47.218 9.936,95.158l-0,168.148c-0,47.218 0.92,76.234 2.76,87.048c1.84,10.452 4.784,17.481 8.832,21.086c4.416,3.604 9.384,5.406 14.904,5.406c5.888,0 11.04,-1.261 15.456,-3.784c7.728,-4.686 22.631,-17.842 44.711,-39.469l0,30.277c-41.215,54.067 -80.591,81.101 -118.127,81.101c-18.032,-0 -32.384,-6.128 -43.056,-18.383c-10.671,-12.255 -16.191,-33.161 -16.559,-62.718Zm-0,-35.143l-0,-188.694c-55.568,21.627 -91.448,36.946 -107.64,45.957c-29.072,15.86 -49.863,32.44 -62.375,49.742c-12.512,17.301 -18.768,36.225 -18.768,56.77c-0,25.952 7.912,47.579 23.736,64.88c15.824,16.941 34.039,25.412 54.647,25.412c27.968,-0 64.768,-18.023 110.4,-54.067Z" style="fill-rule:nonzero;"/><path d="M25767.3,2831.82l-0,-105.972c-0,-34.242 -1.84,-56.229 -5.52,-65.961c-3.312,-10.093 -10.488,-17.482 -21.528,-22.168c-10.672,-5.046 -27.048,-7.569 -49.128,-7.569l0,-20.545l244.534,-0l0,20.545c-25.023,0 -41.767,2.523 -50.231,7.569c-8.096,4.686 -14.536,10.634 -19.32,17.842c-4.784,7.209 -7.176,30.638 -7.176,70.287l-0,262.766c-0,34.242 1.656,56.41 4.968,66.502c3.68,9.732 10.856,17.121 21.528,22.167c11.04,5.047 27.784,7.57 50.231,7.57l0,20.005l-256.678,-0l0,-20.005c29.44,-1.081 48.576,-2.884 57.408,-5.407c9.2,-2.883 16.56,-9.912 22.08,-21.086c5.888,-11.174 8.832,-34.423 8.832,-69.746l-0,-121.11c-54.096,27.033 -111.136,40.55 -171.119,40.55c-32.752,0 -58.144,-3.965 -76.176,-11.895c-18.032,-8.29 -29.44,-17.662 -34.224,-28.115c-4.783,-10.813 -7.175,-28.114 -7.175,-51.904l-0,-90.292c-0,-32.079 -1.472,-53.165 -4.416,-63.258c-2.944,-10.092 -9.568,-18.022 -19.872,-23.789c-10.304,-5.767 -25.576,-8.651 -45.816,-8.651l0,-20.545l237.91,-0l0,20.545c-24.655,0 -41.215,2.523 -49.679,7.569c-8.464,4.686 -15.088,10.634 -19.872,17.842c-4.784,7.209 -7.176,30.638 -7.176,70.287l-0,61.096c-0,23.79 1.656,39.829 4.968,48.12c3.68,8.29 11.776,15.319 24.288,21.086c12.88,5.406 30.912,8.11 54.095,8.11c40.112,-0 78.2,-10.814 114.264,-32.44Z" style="fill-rule:nonzero;"/><path d="M26080.8,2796.13c-0.368,73.532 17.848,131.203 54.648,173.015c36.8,41.811 80.039,62.717 129.719,62.717c33.12,0 61.824,-8.831 86.111,-26.493c24.656,-18.022 45.264,-48.66 61.824,-91.913l17.112,10.813c-7.728,49.381 -30.176,94.437 -67.344,135.167c-37.167,40.37 -83.719,60.555 -139.655,60.555c-60.719,0 -112.791,-23.068 -156.215,-69.205c-43.055,-46.498 -64.583,-108.855 -64.583,-187.072c-0,-84.705 22.08,-150.666 66.239,-197.885c44.528,-47.579 100.28,-71.368 167.255,-71.368c56.672,-0 103.223,18.383 139.655,55.148c36.432,36.405 54.648,85.246 54.648,146.521l-349.414,0Zm0,-31.358l234.047,-0c-1.84,-31.72 -5.704,-54.067 -11.592,-67.043c-9.2,-20.185 -23,-36.045 -41.4,-47.579c-18.032,-11.534 -36.984,-17.302 -56.856,-17.302c-30.543,0 -57.959,11.715 -82.247,35.144c-23.92,23.068 -37.904,55.328 -41.952,96.78Z" style="fill-rule:nonzero;"/><path d="M26655.5,2830.74l218.591,0l-0,-104.89c-0,-31.358 -1.288,-51.724 -3.864,-61.095c-2.576,-9.732 -9.016,-17.842 -19.32,-24.33c-9.936,-6.849 -27.784,-10.273 -53.544,-10.273l0,-20.545l244.535,-0l-0,20.545c-22.816,0 -39.56,2.523 -50.232,7.569c-10.304,5.047 -17.296,12.436 -20.976,22.168c-3.68,9.371 -5.52,31.359 -5.52,65.961l0,262.766c0,31.359 1.288,52.084 3.864,62.177c2.944,10.092 9.752,18.382 20.424,24.87c10.672,6.128 28.152,9.192 52.44,9.192l-0,20.005l-244.535,-0l0,-20.005c30.544,-0 50.968,-5.407 61.272,-16.22c10.304,-11.174 15.456,-37.847 15.456,-80.019l-0,-122.732l-218.591,-0l0,122.732c0,31.359 1.288,52.084 3.864,62.177c2.944,10.092 9.752,18.382 20.424,24.87c10.672,6.128 28.152,9.192 52.44,9.192l-0,20.005l-244.535,-0l0,-20.005c32.752,-0 53.728,-5.767 62.928,-17.302c9.2,-11.894 13.8,-38.207 13.8,-78.937l-0,-262.766c-0,-31.358 -1.472,-52.084 -4.416,-62.176c-2.576,-10.093 -9.2,-18.203 -19.872,-24.331c-10.672,-6.127 -28.152,-9.191 -52.44,-9.191l0,-20.545l244.535,-0l-0,20.545c-22.816,0 -39.56,2.523 -50.232,7.569c-10.304,5.047 -17.296,12.436 -20.976,22.168c-3.68,9.371 -5.52,31.359 -5.52,65.961l0,104.89Z" style="fill-rule:nonzero;"/><path d="M27260.5,2952.39l218.591,-247.627c-0.736,-27.754 -6.072,-47.038 -16.008,-57.851c-9.936,-10.814 -27.048,-16.401 -51.336,-16.761l0,-20.545l235.151,-0l-0,20.545c-24.656,0 -41.216,2.523 -49.68,7.569c-8.464,4.686 -15.088,10.634 -19.872,17.842c-4.784,7.209 -7.176,30.638 -7.176,70.287l0,262.766c0,38.207 2.024,61.095 6.072,68.665c4.048,7.209 10.304,13.697 18.768,19.464c8.832,5.407 26.128,8.11 51.888,8.11l-0,20.005l-244.535,-0l0,-20.005c30.544,-0 50.968,-5.407 61.272,-16.22c10.304,-11.174 15.456,-37.847 15.456,-80.019l-0,-233.029l-218.591,248.167c0.736,30.638 5.152,51.725 13.248,63.259c8.096,11.534 25.576,17.481 52.44,17.842l-0,20.005l-233.495,-0l0,-20.005c32.752,-0 53.728,-5.767 62.928,-17.302c9.2,-11.894 13.8,-38.207 13.8,-78.937l-0,-262.766c-0,-38.567 -2.024,-61.275 -6.072,-68.124c-4.048,-7.209 -10.304,-13.517 -18.768,-18.923c-8.464,-5.767 -25.76,-8.651 -51.888,-8.651l0,-20.545l244.535,-0l-0,20.545c-24.656,0 -41.216,2.523 -49.68,7.569c-8.464,4.686 -15.088,10.634 -19.872,17.842c-4.784,7.209 -7.176,30.638 -7.176,70.287l0,226.541Z" style="fill-rule:nonzero;"/><path d="M27792.6,2796.13c-0.368,73.532 17.848,131.203 54.647,173.015c36.8,41.811 80.04,62.717 129.719,62.717c33.12,0 61.824,-8.831 86.112,-26.493c24.656,-18.022 45.264,-48.66 61.823,-91.913l17.112,10.813c-7.728,49.381 -30.176,94.437 -67.343,135.167c-37.168,40.37 -83.72,60.555 -139.655,60.555c-60.72,0 -112.792,-23.068 -156.215,-69.205c-43.056,-46.498 -64.584,-108.855 -64.584,-187.072c0,-84.705 22.08,-150.666 66.24,-197.885c44.527,-47.579 100.279,-71.368 167.255,-71.368c56.671,-0 103.223,18.383 139.655,55.148c36.431,36.405 54.647,85.246 54.647,146.521l-349.413,0Zm-0,-31.358l234.046,-0c-1.84,-31.72 -5.704,-54.067 -11.592,-67.043c-9.2,-20.185 -23,-36.045 -41.4,-47.579c-18.031,-11.534 -36.983,-17.302 -56.855,-17.302c-30.544,0 -57.96,11.715 -82.248,35.144c-23.919,23.068 -37.903,55.328 -41.951,96.78Z" style="fill-rule:nonzero;"/></g></g><g><rect x="17137.3" y="4931.02" width="6430.83" height="1581.84" style="fill:none;stroke:#000;stroke-width:135.03px;"/></g><g><path d="M20006.2,5773.3c0,-83.623 12.88,-155.532 38.64,-215.727c25.76,-60.555 59.984,-105.611 102.672,-135.167c33.119,-23.429 67.343,-35.144 102.671,-35.144c57.407,0 108.927,28.656 154.559,85.967c57.039,71.008 85.559,167.247 85.559,288.717c0,85.065 -12.512,157.335 -37.536,216.809c-25.023,59.473 -57.039,102.727 -96.047,129.76c-38.64,26.673 -75.991,40.01 -112.055,40.01c-71.392,-0 -130.823,-41.271 -178.295,-123.814c-40.112,-69.566 -60.168,-153.369 -60.168,-251.411Zm108.192,13.517c-0,100.925 12.696,183.287 38.087,247.086c20.976,53.706 52.256,80.56 93.84,80.56c19.872,-0 40.48,-8.651 61.823,-25.953c21.344,-17.661 37.536,-47.038 48.576,-88.129c16.928,-61.996 25.392,-149.405 25.392,-262.224c-0,-83.624 -8.832,-153.37 -26.496,-209.239c-13.248,-41.452 -30.36,-70.828 -51.336,-88.129c-15.087,-11.895 -33.303,-17.842 -54.647,-17.842c-25.024,-0 -47.288,10.993 -66.792,32.98c-26.496,29.917 -44.527,76.956 -54.095,141.115c-9.568,64.159 -14.352,127.418 -14.352,189.775Z" style="fill-rule:nonzero;"/></g><g><rect x="23568.1" y="4931.02" width="4949.76" height="1581.84" style="fill:none;stroke:#000;stroke-width:112.16px;"/></g><g><path d="M26191.3,5368.67l-0,362.248c40.848,-43.975 73.231,-72.089 97.151,-84.344c23.92,-12.616 47.84,-18.924 71.76,-18.924c28.703,0 53.359,7.75 73.967,23.249c20.608,15.499 35.88,39.829 45.816,72.99c6.992,23.069 10.488,65.241 10.488,126.517l-0,175.177c-0,31.358 2.576,52.805 7.728,64.339c3.68,8.651 9.936,15.499 18.768,20.546c8.832,5.046 25.023,7.569 48.575,7.569l0,19.464l-248.398,0l-0,-19.464l11.592,0c23.552,0 39.928,-3.424 49.128,-10.273c9.199,-7.209 15.639,-17.661 19.319,-31.358c1.104,-5.768 1.656,-22.709 1.656,-50.823l0,-175.177c0,-54.067 -2.944,-89.571 -8.832,-106.512c-5.52,-16.941 -14.535,-29.557 -27.047,-37.847c-12.512,-8.651 -27.6,-12.976 -45.264,-12.976c-18.032,0 -36.8,4.686 -56.304,14.057c-19.504,9.372 -42.871,28.295 -70.103,56.771l-0,261.684c-0,33.882 1.84,54.968 5.52,63.258c4.048,8.29 11.224,15.319 21.528,21.086c10.672,5.407 28.887,8.11 54.647,8.11l0,19.464l-250.606,0l-0,-19.464c22.448,0 40.112,-3.424 52.992,-10.273c7.36,-3.604 13.247,-10.453 17.663,-20.545c4.416,-10.093 6.624,-30.638 6.624,-61.636l0,-448.215c0,-56.59 -1.472,-91.373 -4.416,-104.349c-2.576,-12.976 -6.808,-21.807 -12.695,-26.493c-5.52,-4.686 -13.064,-7.029 -22.632,-7.029c-7.728,0 -20.24,2.884 -37.536,8.651l-7.728,-18.924l151.247,-60.554l25.392,-0Z" style="fill-rule:nonzero;"/></g><g><rect x="17118.7" y="6512.86" width="6449.44" height="1581.84" style="fill:none;stroke:#000;stroke-width:135.35px;"/></g><g><path d="M20167.6,7056.16l182.159,-87.048l18.216,0l-0,619.066c-0,41.091 1.656,66.683 4.968,76.775c3.68,10.093 11.04,17.843 22.08,23.249c11.04,5.407 33.487,8.471 67.343,9.192l0,20.004l-281.518,0l0,-20.004c35.328,-0.721 58.144,-3.605 68.448,-8.651c10.304,-5.407 17.479,-12.436 21.527,-21.086c4.048,-9.011 6.072,-35.504 6.072,-79.479l0,-395.769c0,-53.347 -1.84,-87.589 -5.52,-102.728c-2.576,-11.534 -7.36,-20.004 -14.351,-25.411c-6.624,-5.407 -14.72,-8.11 -24.288,-8.11c-13.616,-0 -32.568,5.587 -56.856,16.761l-8.28,-16.761Z" style="fill-rule:nonzero;"/></g><g><rect x="23568.2" y="6512.86" width="4961.68" height="1581.84" style="fill:none;stroke:#000;stroke-width:112.36px;"/></g><g><path d="M26064.3,7416.58c-0.368,73.531 17.848,131.203 54.647,173.015c36.8,41.811 80.04,62.717 129.719,62.717c33.12,0 61.824,-8.831 86.112,-26.493c24.656,-18.022 45.263,-48.66 61.823,-91.913l17.112,10.813c-7.728,49.381 -30.176,94.437 -67.343,135.167c-37.168,40.37 -83.72,60.555 -139.655,60.555c-60.72,0 -112.792,-23.068 -156.215,-69.205c-43.056,-46.498 -64.584,-108.855 -64.584,-187.072c0,-84.705 22.08,-150.666 66.24,-197.885c44.527,-47.579 100.279,-71.368 167.255,-71.368c56.671,-0 103.223,18.383 139.655,55.148c36.431,36.405 54.647,85.246 54.647,146.521l-349.413,0Zm-0,-31.358l234.046,-0c-1.84,-31.72 -5.704,-54.067 -11.592,-67.043c-9.2,-20.185 -23,-36.045 -41.4,-47.579c-18.031,-11.535 -36.983,-17.302 -56.855,-17.302c-30.544,0 -57.96,11.715 -82.248,35.144c-23.919,23.068 -37.903,55.328 -41.951,96.78Z" style="fill-rule:nonzero;"/></g><g><rect x="17118.7" y="8094.7" width="6449.44" height="1581.84" style="fill:none;stroke:#000;stroke-width:135.35px;"/></g><g><path d="M20600,9088.33l-52.44,141.115l-441.597,0l0,-20.005c129.903,-116.063 221.351,-210.861 274.343,-284.392c52.991,-73.531 79.487,-140.754 79.487,-201.669c-0,-46.498 -14.536,-84.705 -43.608,-114.622c-29.072,-29.917 -63.847,-44.876 -104.327,-44.876c-36.8,0 -69.92,10.633 -99.359,31.9c-29.072,20.906 -50.6,51.724 -64.584,92.454l-20.424,0c9.2,-66.682 32.752,-117.866 70.656,-153.55c38.271,-35.684 85.927,-53.526 142.967,-53.526c60.719,-0 111.319,19.104 151.799,57.311c40.847,38.207 61.271,83.263 61.271,135.167c0,37.126 -8.832,74.252 -26.495,111.378c-27.232,58.392 -71.392,120.209 -132.48,185.45c-91.631,98.041 -148.855,157.154 -171.67,177.339l195.406,0c39.744,0 67.528,-1.442 83.352,-4.325c16.192,-2.884 30.727,-8.651 43.607,-17.302c12.88,-9.011 24.104,-21.626 33.672,-37.847l20.424,0Z" style="fill-rule:nonzero;"/></g><g><rect x="23568.1" y="8094.7" width="4973.56" height="1581.84" style="fill:none;stroke:#000;stroke-width:112.57px;"/></g><g><path d="M26092.1,8496.63l-0,656.913c-0,30.999 2.208,51.544 6.624,61.637c4.784,10.092 11.96,17.842 21.527,23.248c9.568,5.047 27.416,7.57 53.544,7.57l0,19.464l-247.846,-0l-0,-19.464c23.184,-0 39.008,-2.343 47.471,-7.029c8.464,-4.686 15.088,-12.435 19.872,-23.249c4.784,-10.813 7.176,-31.539 7.176,-62.177l0,-449.837c0,-55.869 -1.288,-90.111 -3.864,-102.727c-2.576,-12.976 -6.808,-21.807 -12.696,-26.492c-5.52,-4.686 -12.696,-7.029 -21.527,-7.029c-9.568,-0 -21.712,2.883 -36.432,8.651l-9.384,-18.924l150.695,-60.555l24.84,0Z" style="fill-rule:nonzero;"/></g><g><rect x="17103.8" y="9676.55" width="6464.32" height="1581.84" style="fill:none;stroke:#000;stroke-width:135.61px;"/></g><g><path d="M20208.9,10240.9c21.344,-49.381 48.208,-87.408 80.592,-114.081c32.751,-27.034 73.415,-40.55 121.991,-40.55c59.983,-0 105.983,19.103 137.999,57.311c24.288,28.475 36.432,58.933 36.432,91.373c-0,53.346 -34.224,108.494 -102.672,165.445c46,17.661 80.776,42.893 104.328,75.693c23.551,32.801 35.327,71.369 35.327,115.703c0,63.439 -20.607,118.407 -61.823,164.905c-53.728,60.555 -131.559,90.832 -233.495,90.832c-50.415,-0 -84.823,-6.128 -103.223,-18.383c-18.032,-12.255 -27.048,-25.411 -27.048,-39.469c0,-10.453 4.232,-19.644 12.696,-27.574c8.832,-7.93 19.32,-11.894 31.464,-11.894c9.2,-0 18.584,1.441 28.152,4.325c6.256,1.802 20.424,8.47 42.503,20.005c22.08,11.173 37.352,17.842 45.816,20.004c13.616,3.965 28.152,5.948 43.608,5.948c37.536,-0 70.103,-14.238 97.703,-42.713c27.968,-28.475 41.952,-62.177 41.952,-101.105c-0,-28.476 -6.44,-56.23 -19.32,-83.263c-9.568,-20.185 -20.056,-35.504 -31.464,-45.957c-15.824,-14.418 -37.535,-27.394 -65.135,-38.928c-27.6,-11.895 -55.752,-17.842 -84.456,-17.842l-17.664,-0l0,-16.221c29.072,-3.604 58.144,-13.877 87.216,-30.818c29.44,-16.941 50.783,-37.306 64.031,-61.095c13.248,-23.79 19.872,-49.922 19.872,-78.397c0,-37.126 -11.96,-67.043 -35.88,-89.751c-23.551,-23.069 -52.991,-34.603 -88.319,-34.603c-57.04,-0 -104.695,29.917 -142.967,89.751l-18.216,-8.651Z" style="fill-rule:nonzero;"/></g><g><rect x="23568.1" y="9676.55" width="4985.48" height="1581.84" style="fill:none;stroke:#000;stroke-width:112.77px;"/></g><g><path d="M26139.8,10030.8l-0,656.913c-0,30.998 2.208,51.544 6.624,61.636c4.784,10.093 11.96,17.842 21.527,23.249c9.568,5.046 27.416,7.569 53.544,7.569l0,19.464l-247.846,0l-0,-19.464c23.184,0 39.008,-2.343 47.471,-7.028c8.464,-4.686 15.088,-12.436 19.872,-23.249c4.784,-10.814 7.176,-31.539 7.176,-62.177l0,-449.837c0,-55.869 -1.288,-90.111 -3.864,-102.727c-2.576,-12.976 -6.808,-21.807 -12.696,-26.493c-5.52,-4.686 -12.696,-7.029 -21.527,-7.029c-9.568,0 -21.712,2.884 -36.432,8.651l-9.384,-18.923l150.695,-60.555l24.84,-0Z" style="fill-rule:nonzero;"/></g><g><rect x="17096.3" y="11258.4" width="6471.76" height="1581.84" style="fill:none;stroke:#000;stroke-width:135.74px;"/></g><g><path d="M20700.8,12122.8l-0,76.775l-100.464,-0l0,193.559l-91.079,0l0,-193.559l-316.846,-0l0,-69.206l347.206,-485.521l60.719,0l0,477.952l100.464,-0Zm-191.543,-0l0,-363.871l-262.75,363.871l262.75,-0Z" style="fill-rule:nonzero;"/></g><g><rect x="23568.1" y="11258.4" width="5003.36" height="1581.84" style="fill:none;stroke:#000;stroke-width:113.07px;"/></g><g><path d="M26123.4,11865.7c76.544,0 137.999,28.476 184.367,85.426c39.376,48.66 59.063,104.53 59.063,167.608c0,44.335 -10.855,89.21 -32.567,134.626c-21.712,45.417 -51.704,79.659 -89.976,102.727c-37.903,23.069 -80.223,34.603 -126.959,34.603c-76.175,0 -136.711,-29.737 -181.607,-89.21c-37.903,-50.102 -56.855,-106.332 -56.855,-168.689c-0,-45.416 11.408,-90.472 34.224,-135.167c23.183,-45.056 53.543,-78.217 91.079,-99.483c37.536,-21.627 77.279,-32.441 119.231,-32.441Zm-17.112,35.144c-19.504,-0 -39.192,5.767 -59.063,17.301c-19.504,11.174 -35.328,30.999 -47.472,59.474c-12.144,28.475 -18.216,65.061 -18.216,109.756c0,72.089 14.536,134.266 43.608,186.531c29.44,52.264 68.079,78.397 115.919,78.397c35.696,-0 65.136,-14.418 88.319,-43.254c23.184,-28.835 34.776,-78.397 34.776,-148.684c0,-87.949 -19.32,-157.154 -57.959,-207.617c-26.128,-34.603 -59.432,-51.904 -99.912,-51.904Z" style="fill-rule:nonzero;"/></g></g><g id="edge1"><path d="M10545.3,6459l3788.88,0" style="fill:none;fill-rule:nonzero;stroke:#000;stroke-width:71.39px;"/><path d="M14341.7,6182.18l627.505,276.823l-627.505,276.823l-0,-553.646Z" style="fill-rule:nonzero;stroke:#000;stroke-width:71.39px;"/></g></g></svg>